<?xml version="1.0" standalone="no"?>
<!DOCTYPE svg PUBLIC "-//W3C//DTD SVG 1.1//EN" "http://www.w3.org/Graphics/SVG/1.1/DTD/svg11.dtd">
<svg xmlns="http://www.w3.org/2000/svg">
<metadata>Copyright (C) 2019 by original authors @ fontello.com</metadata>
<defs>
<font id="icons_carrefour" horiz-adv-x="1000" >
<font-face font-family="icons_carrefour" font-weight="400" font-stretch="normal" units-per-em="1000" ascent="850" descent="-150" />
<missing-glyph horiz-adv-x="1000" />
<glyph glyph-name="medium-arrow-left" unicode="&#xea02;" d="M7 317c5-13 13-24 24-33l409-409a85 85 0 1 1 121 121l-267 266 681 0h0a85 85 0 0 1 0 171l-685 0 271 271a85 85 0 0 1-61 146c-22 0-43-8-60-25l-415-414a85 85 0 0 1-18-94" horiz-adv-x="1060.7" />

<glyph glyph-name="medium-arrow-down" unicode="&#xea03;" d="M503-144c12 5 22 13 30 23l386 386a81 81 0 1 1-114 114l-251-252 1 642v0a81 81 0 0 1-161 1l-1-647-255 256a81 81 0 0 1-138-57c0-21 8-42 24-57l390-391a81 81 0 0 1 89-18" horiz-adv-x="942.8" />

<glyph glyph-name="long-arrow-up" unicode="&#xea04;" d="M268 846c-8-3-14-8-19-13l-235-235a49 49 0 0 1 70-69l152 153 0-783v0a49 49 0 1 1 98 0l0 785 156-155a49 49 0 0 1 69 69l-238 238a49 49 0 0 1-53 10" horiz-adv-x="573.3" />

<glyph glyph-name="long-arrow-right" unicode="&#xea05;" d="M1738 383a85 85 0 0 1-24 33l-409 409a86 86 0 1 1-121-121l267-266-1365 0h0a86 86 0 0 1-1-171l1370 0-271-271a85 85 0 0 1 0-121 85 85 0 0 1 121 0l415 414a85 85 0 0 1 18 94" horiz-adv-x="1744.5" />

<glyph glyph-name="long-arrow-left" unicode="&#xea06;" d="M7 317c5-13 13-24 24-33l409-409a85 85 0 0 1 121 0 85 85 0 0 1 0 121l-267 266 1365 0h0a86 86 0 1 1 0 171l-1369 0 271 271a86 86 0 1 1-121 121l-415-414a86 86 0 0 1-18-94" horiz-adv-x="1744.4" />

<glyph glyph-name="long-arrow-down" unicode="&#xea07;" d="M306-146c7 3 13 8 18 14l235 234a49 49 0 1 1-69 69l-153-152 0 782v0a49 49 0 1 1-98 0l0-785-155 155a49 49 0 1 1-70-69l238-238a49 49 0 0 1 54-10" horiz-adv-x="573.2" />

<glyph glyph-name="input-adding-arrow" unicode="&#xea08;" d="M303 665l605-3a91 91 0 0 1 92 91 93 93 0 0 1-93 93l-809 4c-3 0-6-1-9-2-26 4-50-2-68-19-17-18-23-43-19-69 0-2-2-5-2-8l4-809a93 93 0 0 1 93-93 91 91 0 0 1 91 92l-3 605 648-648c39-39 97-44 130-12 32 33 27 91-12 130l-648 648z" horiz-adv-x="999.8" />

<glyph glyph-name="external-link" unicode="&#xea09;" d="M976 846a52 52 0 0 1-25 4h-358c-29 0-52-24-52-53a53 53 0 0 1 52-53h233l-298-297 0 0a53 53 0 1 1 75-75l300 299 0-236a53 53 0 0 1 90-38c10 10 16 23 16 38l0 362a53 53 0 0 1-33 49m-150-571h-6c-25 0-46-20-46-45v-283h-677v668h283c25 0 45 21 45 46v6c0 25-20 46-45 46h-334c-25 0-46-21-46-46v-771c0-25 21-46 46-46h780c25 0 45 21 45 46v334c0 25-20 45-45 45" horiz-adv-x="1008.8" />

<glyph glyph-name="directions" unicode="&#xea0a;" d="M564 556a34 34 0 0 0 51 3l129-128a40 40 0 0 0 12-27 40 40 0 0 0-10-28l-130-144a34 34 0 0 0-25-12 34 34 0 0 0-25 11 41 41 0 0 0-1 54l65 72h-215v-187c0-22-16-39-36-39-19 0-35 17-35 39v225c0 21 16 38 35 38h257l-69 69a41 41 0 0 0-3 54m-545-253l434-434a66 66 0 0 1 94 0l434 434a66 66 0 0 1 0 94l-434 434a66 66 0 0 1-94 0l-434-434a66 66 0 0 1 0-94" horiz-adv-x="1000" />

<glyph glyph-name="direction-long-arrow-up-to-right" unicode="&#xea0b;" d="M987 242a61 61 0 0 1-18 24l-300 301a63 63 0 0 1-89-89l196-196-650 1 0 504v0a63 63 0 1 1-125 0l-1-566c0-1 0-1 0-1 0 0 0-1 0-1v-3h1c2-33 28-59 62-59l716-1-199-199a63 63 0 0 1 44-107c16 0 32 6 45 18l305 305a63 63 0 0 1 13 69" horiz-adv-x="991.9" />

<glyph glyph-name="direction-long-arrow-up-to-left" unicode="&#xea0c;" d="M5 242c4 10 10 18 18 24l300 301a63 63 0 0 0 89-89l-196-196 650 1 0 504v0a63 63 0 1 0 125 0l1-566c0-1 0-1 0-1 0 0 0-1 0-1v-3h-1a63 63 0 0 0-62-59l-716-1 199-199a63 63 0 0 0-44-107c-16 0-32 6-45 18l-305 305a63 63 0 0 0-13 69" horiz-adv-x="991.9" />

<glyph glyph-name="direction-long-arrow-right-to-up" unicode="&#xea0d;" d="M395 845c10-4 18-10 25-18l303-303a63 63 0 0 0-90-90l-197 198 0-655 509 0h0a63 63 0 1 0 0-127l-571 0c0 0-1 0-1 0 0 0-1 0-1 0h-3v1a63 63 0 0 0-60 62l0 722-201-201a63 63 0 0 0-89 90l307 308a64 64 0 0 0 69 13" horiz-adv-x="1008.2" />

<glyph glyph-name="direction-long-arrow-right-to-down" unicode="&#xea0e;" d="M395-145a63 63 0 0 1 25 18l303 303a63 63 0 1 1-90 90l-197-198 0 655 509 0h0a63 63 0 1 1 0 127l-571 0c0 0-1 0-1 0 0 0-1 0-1 0h-3v-1a63 63 0 0 1-60-62l0-722-201 201a63 63 0 0 1-89-90l307-307a63 63 0 0 1 69-14" horiz-adv-x="1008.2" />

<glyph glyph-name="direction-long-arrow-left-to-up" unicode="&#xea0f;" d="M613 845a62 62 0 0 1-24-18l-304-303a63 63 0 1 1 90-90l198 198-1-655-509 0h0a63 63 0 0 1 0-127l571 0c1 0 1 0 1 0 1 0 1 0 1 0h3v1a63 63 0 0 1 60 62l0 722 201-201a63 63 0 0 1 108 45c0 16-6 33-18 45l-307 308a64 64 0 0 1-70 13" horiz-adv-x="1008.2" />

<glyph glyph-name="direction-long-arrow-left-to-down" unicode="&#xea10;" d="M613-145a63 63 0 0 0-24 18l-304 303a63 63 0 1 0 90 90l198-198-1 655-509 0h0a63 63 0 0 0 0 127l571 0c1 0 1 0 1 0 1 0 1 0 1 0h3v-1c33-2 60-29 60-62l0-722 201 201a63 63 0 0 0 108-45c0-16-6-33-18-45l-307-307a63 63 0 0 0-70-14" horiz-adv-x="1008.2" />

<glyph glyph-name="direction-long-arrow-down-to-right" unicode="&#xea11;" d="M987 458a62 62 0 0 0-18-24l-300-301a63 63 0 1 0-89 89l196 196-650-1 0-504v0a63 63 0 0 0-125 0l-1 566c0 1 0 1 0 1 0 1 0 1 0 1v3h1a63 63 0 0 0 62 59l716 1-199 199a63 63 0 0 0 44 107c16 0 32-6 45-18l304-305a63 63 0 0 0 14-69" horiz-adv-x="991.9" />

<glyph glyph-name="direction-long-arrow-down-to-left" unicode="&#xea12;" d="M5 458c4-9 10-17 18-24l300-301a63 63 0 1 1 89 89l-196 196 650-1 0-504v0a63 63 0 0 1 125 0l1 566c0 1 0 1 0 1 0 1 0 1 0 1v3h-1a63 63 0 0 1-62 59l-716 1 199 199a63 63 0 0 1-44 107c-16 0-32-6-45-18l-305-305a63 63 0 0 1-13-69" horiz-adv-x="991.9" />

<glyph glyph-name="arrow-up" unicode="&#xea13;" d="M881 850a148 148 0 0 1-97-36l-749-756a123 123 0 0 1 0-172 120 120 0 0 1 171 0l669 676 669-676a120 120 0 0 1 171 0 123 123 0 0 1 0 172l-749 756a120 120 0 0 1-85 36" horiz-adv-x="1750.1" />

<glyph glyph-name="arrow-right" unicode="&#xea14;" d="M571 347a84 84 0 0 1-20 55l-432 428a70 70 0 0 1-99 0 68 68 0 0 1 0-98l387-382-387-383a69 69 0 0 1 0-97 70 70 0 0 1 99 0l432 428c13 13 20 31 20 49" horiz-adv-x="571.4" />

<glyph glyph-name="arrow-left" unicode="&#xea15;" d="M0 353c0-20 7-39 20-55l433-428a70 70 0 0 1 98 0 68 68 0 0 1 0 98l-386 382 386 383a69 69 0 0 1 0 97 70 70 0 0 1-98 0l-433-428c-13-13-20-30-20-49" horiz-adv-x="571.4" />

<glyph glyph-name="arrow-down" unicode="&#xea16;" d="M869-150c36 0 70 13 97 36l749 756a123 123 0 0 1 0 172 120 120 0 0 1-171 0l-669-676-669 676a120 120 0 0 1-171 0 123 123 0 0 1 0-172l749-756c23-23 53-36 85-36" horiz-adv-x="1750.2" />

<glyph glyph-name="medium-arrow-right" unicode="&#xea17;" d="M1054 383a84 84 0 0 1-24 33l-409 409a85 85 0 0 1-121 0 85 85 0 0 1 0-121l267-266-681 0h0a85 85 0 0 1-1-171l686 0-271-271a85 85 0 0 1 61-146c21 0 43 8 60 25l415 414a85 85 0 0 1 25 61c0 11-3 23-7 33" horiz-adv-x="1060.7" />

<glyph glyph-name="medium-arrow-up" unicode="&#xea18;" d="M440 844a79 79 0 0 1-31-23l-385-386a81 81 0 0 1 0-114 81 81 0 0 1 114 0l251 252-1-642v-1a81 81 0 0 1 161 0l1 647 255-256a81 81 0 0 1 138 57c0 21-8 42-24 57l-390 391a80 80 0 0 1-89 18" horiz-adv-x="942.8" />

<glyph glyph-name="to-top" unicode="&#xea19;" d="M800 850h-750c-27 0-50-23-50-52 0-28 23-51 50-51h750c28 0 50 23 50 51 0 29-22 52-50 52m-389-196a51 51 0 0 1-20-14l-243-244a51 51 0 0 1 0-71 51 51 0 0 1 72 0l158 158 0-582v0a51 51 0 0 1 101 0l1 585 161-161a51 51 0 0 1 86 36c0 13-5 25-15 35l-246 247a51 51 0 0 1-55 11" horiz-adv-x="850.1" />

<glyph glyph-name="compare" unicode="&#xea1a;" d="M1330-150a345 345 0 0 1 345 344 46 46 0 0 1-46 46h-56l-1 2-173 420 4 1a46 46 0 0 1-6 91h-426l-1 2c-20 56-74 94-134 94s-113-38-134-94l-1-2h-423a46 46 0 0 1-46-46c0-23 17-42 39-45l5-1-2-4-172-418h-56a46 46 0 0 1-46-46c0-189 155-344 344-344s345 155 345 344a46 46 0 0 1-46 46h-56l-1 2-173 420h288l1-2c21-57 74-94 134-94s114 37 134 94l1 2h291l-2-5-172-417h-57a46 46 0 0 1-45-46 345 345 0 0 1 344-344m-736 299l-1-5c-24-117-128-203-249-203s-224 86-248 203l-1 5h499z m-106 91h-288l3 5 141 343 144-348z m348 417a51 51 0 1 0 0 102 51 51 0 0 0 0-102m352-412l142 343 4-8 140-340h-288l2 5z m-107-96h498l0-5a254 254 0 0 0-249-203 254 254 0 0 0-248 203l-1 5z" horiz-adv-x="1674.7" />

<glyph glyph-name="drag-drop-list" unicode="&#xea1b;" d="M47 75l883 0a47 47 0 0 1 0 95l-883 0a47 47 0 0 1 0-95m883 229l-883 0a47 47 0 1 0 0 95l883 0a47 47 0 0 0 0-95m0 229l-883 1a47 47 0 0 0 0 94l883 0a47 47 0 0 0 0-95m-304-512a30 30 0 0 1-21 9h0a30 30 0 0 1-22-9l-97-99-98 99a30 30 0 0 1-21 9h0a30 30 0 0 1-21-9 30 30 0 0 1 0-43l118-119a30 30 0 0 1 21-9 35 35 0 0 1 23 9l118 119a30 30 0 0 1 0 43m-280 658c6-5 13-8 21-8h0a30 30 0 0 1 21 8l98 99 97-99a30 30 0 0 1 22-8h0a30 30 0 0 1 21 51l-118 119a30 30 0 0 1-21 9 35 35 0 0 1-23-9l-118-119a30 30 0 0 1 0-43" horiz-adv-x="977.3" />

<glyph glyph-name="filtering-dropdown" unicode="&#xea1c;" d="M319 850c-13 0-25-5-35-13l-271-274a44 44 0 0 1 0-62 43 43 0 0 1 62 0l242 245 242-245a43 43 0 0 1 62 0 44 44 0 0 1 0 62l-271 274a44 44 0 0 1-31 13m-4-1000c12 0 25 5 35 13l271 274a44 44 0 0 1 0 62 43 43 0 0 1-62 0l-242-245-242 245c-18 17-45 17-62 0s-17-45 0-62l271-274a43 43 0 0 1 31-13" horiz-adv-x="633.3" />

<glyph glyph-name="filtering" unicode="&#xea1d;" d="M714 421a71 71 0 1 0 0-142 71 71 0 0 0 0 142m139-107h111a36 36 0 0 1 0 72h-111a143 143 0 0 1-277 0h-540a36 36 0 0 1 0-72h540a143 143 0 0 1 138-107 143 143 0 0 1 139 107m-496 393a71 71 0 1 1-143 0 71 71 0 0 1 143 0m607-36h-540a143 143 0 0 0-138-107 143 143 0 0 0-139 107h-111a36 36 0 0 0 0 72h111a143 143 0 0 0 277 0h540a36 36 0 1 0 0-72m-607-678a71 71 0 1 1-143 0 71 71 0 0 1 143 0m607-36h-540a143 143 0 0 0-277 0h-111a36 36 0 0 0 0 72h111a143 143 0 0 0 277 0h540a36 36 0 1 0 0-72" horiz-adv-x="1000" />

<glyph glyph-name="heart-empty" unicode="&#xea1e;" d="M559-150a37 37 0 0 0-24 8l-345 275c-128 106-171 248-173 255-85 334 181 437 184 438 179 66 298-15 358-96 59 81 178 162 357 96 3-1 269-104 185-437-2-8-46-150-174-255l-345-276a37 37 0 0 0-23-8m-470 557c0 0 39-125 149-216l321-256 321 257c110 91 148 216 149 217 67 265-130 343-139 347-215 78-294-108-297-116-11-28-58-28-69 0-8 20-87 193-297 115-8-3-206-81-138-348" horiz-adv-x="1117.2" />

<glyph glyph-name="heart-full" unicode="&#xea1f;" d="M559-150a37 37 0 0 0-24 8l-345 275c-128 106-171 248-173 254-85 335 181 438 184 439 179 66 298-15 358-96 59 81 178 162 357 96 3-1 269-104 185-437-2-8-46-150-174-256l-345-275a38 38 0 0 0-23-8" horiz-adv-x="1117.2" />

<glyph glyph-name="select-full" unicode="&#xea20;" d="M98 850a98 98 0 0 1-88-139l359-757a98 98 0 0 1 179 7l21 53 43 113 344-258a98 98 0 0 1 137 20l97 130a98 98 0 0 1-20 137l-345 258 142 109a98 98 0 0 1-41 173l-810 152a97 97 0 0 1-18 2" horiz-adv-x="1209" />

<glyph glyph-name="select" unicode="&#xea21;" d="M98 752l810-152-245-187 448-336 0 0 0 0-96-129-449 335-89-234-20-53-359 756m0 98a98 98 0 0 1-88-139l359-757a98 98 0 0 1 179 7l21 53 43 113 344-258a98 98 0 0 1 137 20l97 130a98 98 0 0 1-20 137l-345 258 142 109a98 98 0 0 1-41 173l-810 152a97 97 0 0 1-18 2" horiz-adv-x="1209" />

<glyph glyph-name="sorting-large" unicode="&#xea22;" d="M910-132a47 47 0 0 0-19-14 49 49 0 0 0-54 10l-236 238a49 49 0 0 0 0 69 49 49 0 0 0 69 0l154-155 1 785a49 49 0 0 0 98 0l-1-782 153 152a49 49 0 0 0 69 0 49 49 0 0 0 0-69l-234-234z m-662 965a48 48 0 0 0 19 13 49 49 0 0 0 54-10l236-238a49 49 0 0 0 0-69 49 49 0 0 0-69 0l-154 155-1-785c0-27-22-49-49-49s-49 22-49 49v0l1 783-153-153a49 49 0 0 0-69 0 49 49 0 0 0 0 69l234 235z" horiz-adv-x="1157.9" />

<glyph glyph-name="sorting" unicode="&#xea23;" d="M910-132a47 47 0 0 0-19-14 49 49 0 0 0-54 10l-236 238a49 49 0 0 0 0 69 49 49 0 0 0 69 0l155-155 0 785a49 49 0 0 0 98 0v0l-1-782 153 152a49 49 0 0 0 69 0 49 49 0 0 0 0-69l-234-234z m-662 965a49 49 0 0 0 19 13 49 49 0 0 0 54-10l236-238a49 49 0 0 0 0-69 49 49 0 0 0-69 0l-154 155-1-785a49 49 0 0 0-98 0v0l1 783-153-153a49 49 0 0 0-69 0 49 49 0 0 0 0 69l234 235z" horiz-adv-x="1157.9" />

<glyph glyph-name="sorting2" unicode="&#xea24;" d="M572 136a71 71 0 1 0-143 0 71 71 0 0 0 143 0m-108-139v-111a36 36 0 1 1 72 0v111a143 143 0 0 1 0 277v540a36 36 0 0 1-72 0v-540a143 143 0 0 1 0-277m393 496a71 71 0 1 1 0 143 71 71 0 0 1 0-143m-35-607v540a143 143 0 0 0 0 277v111a36 36 0 1 0 71 0v-111a143 143 0 0 0 0-277v-540a36 36 0 0 0-71 0m-679 607a71 71 0 1 1 0 143 71 71 0 0 1 0-143m-36-607v540a143 143 0 0 0 0 277v111a36 36 0 0 0 72 0v-111a143 143 0 0 0 0-277v-540a36 36 0 0 0-72 0" horiz-adv-x="1000" />

<glyph glyph-name="star-half" unicode="&#xea25;" d="M1035 476a109 109 0 0 1-89 75l-226 32-102 206a109 109 0 0 1-98 61c-42 0-79-23-98-61l-101-206-227-32a109 109 0 0 1-89-75 109 109 0 0 1 28-112l164-160-39-226a109 109 0 0 1 24-89 110 110 0 0 1 135-26l203 106 203-106c16-9 33-13 51-13 32 0 63 14 84 39 20 25 29 57 24 89l-39 226 164 160 0 0c30 29 41 72 28 112m-85-54l-168-164c-16-16-24-40-20-62l40-232a27 27 0 0 0-6-23 28 28 0 0 0-35-6l-208 109a72 72 0 0 1-33 8c1 0 1 0 2 0v715a31 31 0 0 1-15-3c13 7 31 3 38-11l104-210c10-21 30-35 54-39l232-34a27 27 0 0 0 23-19 28 28 0 0 0-8-29" horiz-adv-x="1040.1" />

<glyph glyph-name="star" unicode="&#xea26;" d="M774-150c-18 0-35 4-51 13l-203 106-203-106a110 110 0 0 0-135 26 109 109 0 0 0-24 89l39 226-164 160a109 109 0 0 0-28 112 109 109 0 0 0 89 75l227 32 101 206a109 109 0 0 0 98 61c42 0 80-23 98-61l102-206 226-33a108 108 0 0 0 89-74 109 109 0 0 0-28-112l0 0-164-160 39-226a109 109 0 0 0-108-128m-254 202c11 0 23-3 33-8l208-109c12-7 26-4 35 6a27 27 0 0 1 6 23l-40 232a71 71 0 0 0 20 62l168 164a28 28 0 0 1 8 29 28 28 0 0 1-23 19l-232 34a71 71 0 0 0-54 39l-104 210c-9 20-40 20-50 0l-104-210a71 71 0 0 0-54-39l-232-34a28 28 0 0 1-22-19 28 28 0 0 1 7-29l168-164c17-16 24-40 20-62l-39-232a27 27 0 0 1 5-23 29 29 0 0 1 35-7l208 110c10 5 22 8 33 8m5-80l0 0 0 0m317 237z m-516 375z" horiz-adv-x="1040.1" />

<glyph glyph-name="star-full" unicode="&#xea27;" d="M1035 476a108 108 0 0 1-88 75l-227 33-102 205a109 109 0 0 1-98 61c-42 0-79-23-98-61l-101-205-227-33a109 109 0 0 1-89-75 109 109 0 0 1 28-112l164-160-38-226a109 109 0 0 1 24-89 110 110 0 0 1 134-26l203 106 203-106a108 108 0 0 1 51-13 110 110 0 0 1 108 128l-39 226 164 160 0 0c30 29 41 72 28 112" horiz-adv-x="1040.2" />

<glyph glyph-name="cart" unicode="&#xea28;" d="M1150 677a41 41 0 0 1-33 15h-870v57a41 41 0 0 1-27 39l-165 60a41 41 0 1 1-28-77l139-50v-69c0-1 0-1 0-1a42 42 0 0 1 2-12l163-488a41 41 0 0 1 38-28h618a41 41 0 0 1 39 30l131 488a41 41 0 0 1-7 36m-361-66l-54-406h-124l-54 406h232z m-526 0h212l54-406h-130l-136 406z m693-406h-139l54 406h193l-108-406z m-489-171a92 92 0 1 1 0-184 92 92 0 0 1 0 184m428 0a92 92 0 1 1 0-184 92 92 0 0 1 0 184" horiz-adv-x="1157.9" />

<glyph glyph-name="close-cross" unicode="&#xea29;" d="M400 353l-380 379a69 69 0 1 0 98 98l382-383 383 383a69 69 0 0 0 97-98l-380-379 380-384a70 70 0 0 0 0-99c-27-27-71-27-97 0l-383 387-382-387c-27-27-71-27-98 0a70 70 0 0 0 0 99l380 384z" horiz-adv-x="1000" />

<glyph glyph-name="delete-content-field" unicode="&#xea2a;" d="M1142 131c13-12 13-37 0-56-12-12-37-12-56 0l-213 213-212-213c-13-12-38-12-56 0-13 13-13 38 0 56l212 213-206 212c-13 13-13 38 0 57 12 12 37 12 56 0l213-213 212 213c13 12 38 12 56 0 13-13 13-38 0-57l-212-212 206-213z m81 719h-743c-38 0-82-19-107-44l-331-350c-56-56-56-150 0-206l331-350c25-31 69-50 107-50h737c81 0 150 69 150 150v700c6 81-62 150-144 150" horiz-adv-x="1367.6" />

<glyph glyph-name="equal" unicode="&#xea2b;" d="M1731 850c77 0 140-52 140-117 0-64-63-117-140-117h-1591c-77 0-140 53-140 117 0 65 63 117 140 117h1591z m0-766c77 0 140-52 140-117s-63-117-140-117h-1591c-77 0-140 52-140 117s63 117 140 117h1591z" horiz-adv-x="1870.8" />

<glyph glyph-name="home" unicode="&#xea2c;" d="M1085 413a124 124 0 0 1-44 75l-404 329c-27 22-60 33-94 33s-67-11-94-33l-406-331c-20-16-35-37-40-61-17-82 35-144 100-156v-312c0-59 48-107 107-107h666a107 107 0 0 1 107 107v312a124 124 0 0 1 102 144m-115-65l-66-12v-379a27 27 0 0 0-28-28h-201v190a51 51 0 0 1-50 50h-163c-28 0-51-23-51-50v-190h-201a27 27 0 0 0-27 28v379l-66 12a45 45 0 0 0-30 18c-7 12-9 26-6 43 1 3 4 9 12 15l406 331a70 70 0 0 0 88 0l403-328a45 45 0 0 0-20-79" horiz-adv-x="1086.4" />

<glyph glyph-name="menu" unicode="&#xea2d;" d="M52-150l973 0a52 52 0 0 1 0 104l-973 0a52 52 0 1 1 0-104m973 448l-973 0a52 52 0 1 0 0 104l973 0a52 52 0 0 0 0-104m0 448l-973 0a52 52 0 0 0 0 104l973 0a52 52 0 0 0 0-104" horiz-adv-x="1076.9" />

<glyph glyph-name="play" unicode="&#xea30;" d="M864 398l-773 442c-1 1-2 1-4 2a56 56 0 0 1-23 7c-2 0-4 1-6 1-1 0-3-1-5-1a51 51 0 0 1-10-2 57 57 0 0 1-13-5 61 61 0 0 1-4-3 56 56 0 0 1-14-13c-1-1-1-1-1-1 0-1 0-1-1-1-3-6-6-11-7-17a54 54 0 0 1-2-7c0-3-1-4-1-7v-872c0-1 1-2 1-3a59 59 0 0 1 10-43c18-26 54-33 80-15l773 442c16 11 23 30 23 48 0 18-7 37-23 48m-747 286l606-334-606-334v668z" horiz-adv-x="886.9" />

<glyph glyph-name="plus" unicode="&#xea31;" d="M500 850c35 0 63-33 63-75v-362h362c42 0 75-28 75-63s-33-62-75-62h-362v-363c0-42-28-75-63-75-34 0-62 33-62 75v363h-363c-41 0-75 28-75 62s34 63 75 63h363v362c0 42 28 75 62 75" horiz-adv-x="1000" />

<glyph glyph-name="search-magnifying-glass" unicode="&#xea32;" d="M980-65l-207 207c139 171 127 424-30 581a432 432 0 0 1-308 127 432 432 0 0 1-308-127c-169-170-169-446 0-616a433 433 0 0 1 308-127 436 436 0 0 1 268 92l207-207c9-10 22-15 35-15s26 5 35 15a50 50 0 0 1 0 70m-209 480a334 334 0 0 0-98-238c-64-63-148-98-238-98s-174 35-237 98a334 334 0 0 0-99 238c0 90 35 174 99 237 63 64 147 99 237 99s174-35 238-99 98-147 98-237" horiz-adv-x="994.5" />

<glyph glyph-name="settings" unicode="&#xea33;" d="M949 455l-70 12a397 397 0 0 1-28 68l41 58a62 62 0 0 1-7 79l-62 63a61 61 0 0 1-79 6l-58-41a394 394 0 0 1-71 29l-12 69a62 62 0 0 1-61 52h-88c-30 0-56-22-61-52l-12-71a387 387 0 0 1-68-28l-57 41a61 61 0 0 1-36 12c-17 0-32-7-44-19l-62-62a62 62 0 0 1-7-79l42-59a386 386 0 0 1-28-68l-69-12a62 62 0 0 1-52-61v-88a62 62 0 0 1 52-61l71-12c7-24 17-46 28-68l-41-57a62 62 0 0 1 7-80l62-62a61 61 0 0 1 79-7l59 42a394 394 0 0 1 66-27l12-70c5-30 31-52 61-52h88c30 0 56 22 61 52l12 70a396 396 0 0 1 68 28l58-41c10-8 23-12 36-12 16 0 32 7 43 18l63 63a62 62 0 0 1 6 79l-41 58c11 22 21 45 28 68l70 12a62 62 0 0 1 52 61v88a61 61 0 0 1-51 61z m-5-149a6 6 0 0 0-4-5l-88-15a28 28 0 0 1-23-21 334 334 0 0 0-36-87 28 28 0 0 1 1-31l52-73a6 6 0 0 0-1-7l-62-62a5 5 0 0 0-4-2 5 5 0 0 0-3 1l-73 52a28 28 0 0 1-30 1 334 334 0 0 0-88-36 28 28 0 0 1-21-23l-14-87a5 5 0 0 0-6-5h-88a5 5 0 0 0-5 5l-15 87a28 28 0 0 1-21 23 347 347 0 0 0-85 35 29 29 0 0 1-14 4 28 28 0 0 1-17-5l-73-52a6 6 0 0 0-3-1 6 6 0 0 0-4 1l-62 62a6 6 0 0 0-1 8l52 72a29 29 0 0 1 1 31 332 332 0 0 0-37 87 29 29 0 0 1-23 21l-88 15a5 5 0 0 0-4 5v88c0 3 1 5 4 5l87 15a28 28 0 0 1 23 21 334 334 0 0 0 36 88 28 28 0 0 1-2 30l-52 73a6 6 0 0 0 1 7l62 63a5 5 0 0 0 4 1c1 0 2 0 3-1l72-51a29 29 0 0 1 31-1 331 331 0 0 0 88 36 29 29 0 0 1 20 23l15 88a5 5 0 0 0 6 5h88a6 6 0 0 0 5-5l15-87a28 28 0 0 1 21-23 338 338 0 0 0 89-36c10-6 22-6 31 1l72 52a6 6 0 0 0 3 1c1 0 3-1 4-2l62-62a6 6 0 0 0 1-7l-52-73a28 28 0 0 1-1-30c17-28 29-57 37-88a28 28 0 0 1 22-21l88-15a6 6 0 0 0 4-5v-88h0z m-444 260c-119 0-216-97-216-216s97-216 216-216a216 216 0 0 1 216 216 216 216 0 0 1-216 216z m0-375c-88 0-159 71-159 159s71 160 159 160a159 159 0 0 0 0-319z" horiz-adv-x="1000" />

<glyph glyph-name="store" unicode="&#xea34;" d="M998 499a57 57 0 0 1-6 19l-110 305a42 42 0 0 1-39 27h-685a43 43 0 0 1-40-27l-105-295c-1-1-1-3-2-4l-4-12a32 32 0 0 1-2-9c-3-12-5-25-5-37a155 155 0 0 1 99-145v-429a42 42 0 0 1 42-42h735a41 41 0 0 1 29 12 40 40 0 0 1 12 28l0 437a158 158 0 0 1 85 139 152 152 0 0 1-4 33m-816-186l0 0a156 156 0 0 1 90 48 154 154 0 0 1 114-50 157 157 0 0 1 115 50 154 154 0 0 1 113-50h1a157 157 0 0 1 114 50c20-22 47-38 77-45-1 0-2 1-2 1l5-2c3-1 6-1 9-2l3-1c2 0 3 0 7 0 1-1 3-1 5-1l-1-377h-650v379z m638 85l-2 1a74 74 0 0 0-46 61v6a42 42 0 0 1-41 42h-1c-22 0-41-18-41-42a3 3 0 0 0 0-2l-1-3a73 73 0 0 0-44-62 8 8 0 0 1-4-1 63 63 0 0 0-11-3c-4-1-9-1-13-1a89 89 0 0 0-14 1c-3 1-5 1-7 2a55 55 0 0 1-4 1l-2 1a74 74 0 0 0-45 63 10 10 0 0 1-1 4 42 42 0 0 1-42 42h0c-23 0-41-18-42-42a5 5 0 0 0 0-2l0-3a74 74 0 0 0-45-62 7 7 0 0 1-4-1 57 57 0 0 0-10-3c-5-1-9-1-14-2a85 85 0 0 0-14 2 65 65 0 0 0-6 2 50 50 0 0 1-5 1l-2 1a74 74 0 0 0-46 61v6a41 41 0 0 1-41 42h-1a41 41 0 0 1-41-42 4 4 0 0 0 0-2l-1-3a74 74 0 0 0-45-62 8 8 0 0 1-3-2 84 84 0 0 0-24-4c-1 0-2 1-3 1a31 31 0 0 1-4 0l-1 0-2 1-3 0a73 73 0 0 0-60 72c0 7 1 14 3 22l1 2 100 277h626l97-271 2-8 0 0 1-3c2-6 3-13 3-20a74 74 0 0 0-50-69l-2 0a168 168 0 0 1-11-3 41 41 0 0 0-10 0 90 90 0 0 0-14 1c-2 1-4 1-6 2l-4 1" horiz-adv-x="1001.8" />

<glyph glyph-name="store1" unicode="&#xea35;" d="M1088 662l-64 120c-22 42-64 68-110 68h-719c-45 0-87-26-110-68l0 0-64-121a184 184 0 0 1-7-157c20-46 57-80 103-93 4-1 7-1 10-2v-512c0-26 21-47 47-47h761a47 47 0 0 1 47 47v513a159 159 0 0 1 107 85 181 181 0 0 1-1 167m-650-719h229v251h-229v-251z m299 0v286c0 19-16 35-35 35h-299a35 35 0 0 1-35-35v-286h-147v473c29 9 54 24 74 46 31-33 76-52 130-52 54 0 99 19 130 52 31-33 76-52 130-52 54 0 99 19 130 52 19-21 44-36 73-45v-474h-151z m269 594c-6-12-21-33-52-37-3 0-6 0-9 0-53 0-83 34-83 92a47 47 0 0 1-47 47 47 47 0 0 1-47-47c0-77-52-89-83-89s-83 12-83 89a47 47 0 0 1-94 0c0-77-52-89-83-89-31 0-83 12-83 89a47 47 0 0 1-94 0c0-58-31-91-83-91l-8 0c-5-1-12-1-14 0-25 7-38 28-42 39a89 89 0 0 0 3 77l64 121c6 11 17 19 27 19h719c11 0 22-8 27-19l64-120c13-25 13-56 1-81" horiz-adv-x="1108.8" />

<glyph glyph-name="trash-bin" unicode="&#xea36;" d="M492 85l-1 1a32 32 0 0 0-30 33l20 366c1 17 17 30 33 30a32 32 0 0 0 30-33l-20-367a31 31 0 0 0-32-30m-178 30a32 32 0 0 1 31-30l2 1a32 32 0 0 1 29 33l-20 366c-1 17-17 30-33 30a31 31 0 0 1-30-33l21-367z m304-141c-1-26-18-46-32-46h-360c-14 0-31 20-32 46l-26 625h476l-26-625z m164 708h-740a42 42 0 1 1 0-83h48l27-623c3-71 53-126 115-126h361c61 0 112 55 115 126l26 623h48a42 42 0 1 1 0 83m-501 84h262a42 42 0 1 1 0 84h-262a42 42 0 0 1 0-84" horiz-adv-x="824.3" />

<glyph glyph-name="view" unicode="&#xea37;" d="M814 850c-371 0-685-321-796-448-24-28-24-76 0-104 111-127 425-448 796-448 370 0 684 321 795 448 24 28 24 76 0 104-111 127-425 448-795 448m0-866c-277 0-529 224-652 354a18 18 0 0 0 0 25c138 146 391 353 652 353 276 0 527-223 650-354a18 18 0 0 0 0-24 1589 1589 0 0 0-148-139c-120-98-305-215-502-215m0 97a270 270 0 0 0-269 269c0 148 121 269 269 269s270-121 270-269a270 270 0 0 0-270-269m-22 419a152 152 0 0 1-129-150 152 152 0 0 1 151-151 152 152 0 0 1 150 130 121 121 0 1 0-172 171" horiz-adv-x="1627.1" />

<glyph glyph-name="cloud-sync" unicode="&#xea38;" d="M1095 529l-3 1 0 2a390 390 0 0 1-121 215 392 392 0 0 1-265 103 390 390 0 0 1-213-63 394 394 0 0 1-122-124l-1-3-3 0a222 222 0 0 1-176-52 220 220 0 0 1-73-201l1-3-2-2a303 303 0 0 1-117-237 323 323 0 0 1 82-213c54-62 127-98 206-102h186c0 0 1 0 1 0l549 0c86 6 165 46 224 111a349 349 0 0 1 92 235c-1 151-104 291-245 333m-76-583h-570c0 0-1 0-1 0h-159c-105 6-193 107-193 219 0 73 39 141 102 177a48 48 0 0 1 21 58 125 125 0 0 0 159 160 48 48 0 0 1 60 25 298 298 0 0 0 269 170 295 295 0 0 0 295-268c2-22 19-39 40-43 115-20 202-126 202-248 0-128-101-240-225-250m-371 504l-10-10a30 30 0 1 1 42-42l61 61a30 30 0 0 1 9 21 30 30 0 0 1-9 21l-61 61a30 30 0 0 1-41 0 30 30 0 0 1-1-42l12-11a206 206 0 0 1-178-131 207 207 0 0 1 53-229 29 29 0 0 1 28-7 30 30 0 0 1 12 50 148 148 0 0 0-38 164 148 148 0 0 0 121 94m148 20a30 30 0 0 1-11-50 148 148 0 0 0 37-163 148 148 0 0 0-121-94l10 10a30 30 0 0 1 0 42 30 30 0 0 1-42 0l-61-61a30 30 0 0 1 0-42l61-62a30 30 0 0 1 42 42l-11 12a209 209 0 0 1 192 207 210 210 0 0 1-67 153 30 30 0 0 1-29 6" horiz-adv-x="1339.6" />

<glyph glyph-name="cloud" unicode="&#xea39;" d="M1095 529l-3 1 0 2a390 390 0 0 1-121 215 392 392 0 0 1-265 103 390 390 0 0 1-213-63 394 394 0 0 1-122-124l-1-3-3 0a222 222 0 0 1-176-52 220 220 0 0 1-73-201l1-3-2-2a303 303 0 0 1-117-237 323 323 0 0 1 82-213c54-62 127-98 206-102h186c0 0 1 0 1 0l549 0c86 6 165 46 224 111a349 349 0 0 1 92 235c-1 151-104 291-245 333m-76-583h-570c0 0-1 0-1 0h-159c-105 6-193 107-193 219 0 73 39 141 102 177a48 48 0 0 1 21 58 125 125 0 0 0 159 160 48 48 0 0 1 60 25 298 298 0 0 0 269 170 295 295 0 0 0 295-268c2-22 19-39 40-43 115-20 202-126 202-248 0-128-101-240-225-250" horiz-adv-x="1339.6" />

<glyph glyph-name="download-from-cloud" unicode="&#xea3a;" d="M508-148a30 30 0 0 1 12 9l144 144a30 30 0 0 1-43 42l-94-93 1 335v0a30 30 0 0 1-61 0l0-337-95 95a30 30 0 0 1-43 0 30 30 0 0 1 0-42l146-146a30 30 0 0 1 33-7m134 257l117 0c63 5 123 34 166 82a258 258 0 0 1 68 175c0 111-76 215-181 246l-2 1-1 2a289 289 0 0 1-89 159 290 290 0 0 1-196 76 289 289 0 0 1-158-46 293 293 0 0 1-91-93l-1-2-2 1a165 165 0 0 1-130-39 163 163 0 0 1-54-150l0-1-2-2a225 225 0 0 1-86-176c0-57 22-113 61-158 40-45 94-72 152-75h138a36 36 0 0 1 0 71h-137c-77 4-143 79-143 162a153 153 0 0 0 76 132 36 36 0 0 1 15 43 92 92 0 0 0 118 118 36 36 0 0 1 45 18 221 221 0 0 0 199 127 219 219 0 0 0 219-199 36 36 0 0 1 29-32c86-14 150-93 150-184 0-95-75-178-166-185h-114a36 36 0 0 1-36-36c0-19 16-35 36-35" horiz-adv-x="993.1" />

<glyph glyph-name="download-large" unicode="&#xea3b;" d="M50-150h941c28 0 50 23 50 52s-22 51-50 51h-941c-28 0-50-23-50-51 0-29 22-52 50-52m485 196c8 3 15 8 20 15l243 243a51 51 0 1 1-72 71l-158-158 0 582v0a51 51 0 0 1-101 0l-1-585-161 161a51 51 0 0 1-72 0 51 51 0 0 1 0-71l247-247a51 51 0 0 1 55-11" horiz-adv-x="1041.4" />

<glyph glyph-name="download" unicode="&#xea3c;" d="M73-150h573c40 0 72 33 72 75 0 41-32 74-72 74h-573c-40 0-73-33-73-74s33-75 73-75m308 288a57 57 0 0 1 23 16l276 276a58 58 0 0 1-82 82l-180-180 1 460v0a58 58 0 0 1-116 0l0-463-183 183a58 58 0 0 1-99-41c0-14 6-29 17-41l280-280a58 58 0 0 1 63-12" horiz-adv-x="718.2" />

<glyph glyph-name="hourglass" unicode="&#xea3d;" d="M748-71h-56v86c0 111-61 213-171 287-12 9-20 27-20 48s8 39 20 48c110 74 171 176 171 287v85h56a40 40 0 0 1 0 80h-708a40 40 0 0 1 0-80h56v-85c0-111 60-213 171-287 12-9 20-27 20-48s-8-39-20-48c-111-74-171-176-171-287v-86h-56a40 40 0 0 1 0-79h708a40 40 0 0 1 0 79m-382 421c0 48-20 90-55 114-51 34-136 108-136 221v85h438v-85c0-113-85-187-136-221-35-24-55-66-55-114s20-90 55-114c51-34 136-108 136-221v-86h-438v86c0 113 85 187 136 221 35 24 55 66 55 114m170-375c15 0 23 17 14 29l-99 135a65 65 0 0 1-91 0l-100-135a18 18 0 0 1 15-29h261z" horiz-adv-x="787.9" />

<glyph glyph-name="loading" unicode="&#xea3e;" d="M617 733a117 117 0 0 0-117-117 117 117 0 0 0 0 234 117 117 0 0 0 117-117m-47-813c0-39-31-70-70-70a70 70 0 1 0 0 140c39 0 70-31 70-70m-252 694a105 105 0 0 0-105-105 106 106 0 0 0-106 105c0 58 48 105 106 105a105 105 0 0 0 105-105m528-575a59 59 0 1 0-117 0 59 59 0 0 0 117 0m-659 288a94 94 0 1 0-93 93c51 0 93-42 93-93m766 0a47 47 0 1 0-93 0 47 47 0 0 0 93 0m-798-230a82 82 0 0 1 0-116 82 82 0 0 1 116 0 82 82 0 0 1 0 116 82 82 0 0 1-116 0m668 517a35 35 0 0 0-71 0 35 35 0 1 0 71 0" horiz-adv-x="953.3" />

<glyph glyph-name="return-refresh" unicode="&#xea3f;" d="M815 359a392 392 0 0 1-125 287 43 43 0 0 1-71-22 43 43 0 0 1 13-42 304 304 0 0 0 76-334 304 304 0 0 0-283-193c0 0-1 0-1 0a5 5 0 0 0-2-1l46 47a43 43 0 0 1-61 61l-119-120a43 43 0 0 1 0-61l119-119a43 43 0 0 1 61 61l-46 46 1 0 0 0a6 6 0 0 1 2 0 391 391 0 0 1 390 390m-288 360l-119 119a43 43 0 0 1-61-61l47-46c-1 0-1 0-2 0-1 0-1 0-2 0a390 390 0 0 1-264-676 43 43 0 0 1 71 22 43 43 0 0 1-13 41 304 304 0 0 0 206 527c1 0 1 0 2 0a5 5 0 0 0 2 1l-47-46a43 43 0 1 1 61-61l119 119a43 43 0 0 1 0 61" horiz-adv-x="815.4" />

<glyph glyph-name="save-cloud" unicode="&#xea40;" d="M590 418a36 36 0 0 1-14-10l-176-175a37 37 0 0 1 0-52 36 36 0 0 1 52 0l114 114 0-408v0a37 37 0 1 1 73-1l0 411 116-116a36 36 0 0 1 52 0 37 37 0 0 1 0 52l-177 177a37 37 0 0 1-40 8m190-469l143 0c77 6 149 41 202 100a314 314 0 0 1 82 212c0 136-93 262-220 300l-3 0 0 3a351 351 0 0 1-109 193 353 353 0 0 1-238 93 352 352 0 0 1-192-56 356 356 0 0 1-110-113l-2-2-2 0a200 200 0 0 1-159-47 198 198 0 0 1-65-181l0-3-2-1a273 273 0 0 1-105-214c0-70 26-139 74-192 49-56 115-89 185-92h168a43 43 0 0 1 0 86h-166c-95 6-175 96-175 198a186 186 0 0 0 92 159 44 44 0 0 1 19 53 112 112 0 0 0 144 144 43 43 0 0 1 54 22 269 269 0 0 0 242 153 266 266 0 0 0 266-241 43 43 0 0 1 36-39c104-17 182-114 182-223 0-116-91-217-202-226h-139a43 43 0 0 1-43-43c0-24 20-43 43-43" horiz-adv-x="1207.4" />

<glyph glyph-name="save" unicode="&#xea41;" d="M613 531a71 71 0 0 0 103 0c28-29 28-76 0-105l-250-257c-1-1-3-3-5-5l-49-51-304 313a76 76 0 0 0 0 105 71 71 0 0 0 102 0l130-134 1 379c0 41 32 74 72 74h1c39 0 72-33 72-74l-1-376 128 131z m137-392h-122s-15 1-27-1v1h-67c-31 0-42-29-62-56-26-34-47-37-60-37-13 0-35 3-61 37-20 27-31 56-62 56h-67v-1c-12 2-26 1-26 1h-123c-40 0-73-33-73-73v-143c0-40 33-73 73-73h677c40 0 73 33 73 73v143c0 40-33 73-73 73m-654-130a36 36 0 1 0 0 72 36 36 0 0 0 0-72" horiz-adv-x="823.3" />

<glyph glyph-name="account-id" unicode="&#xea42;" d="M729 215h1c86 0 161-68 183-166a27 27 0 1 0-54-12c-16 73-69 123-129 124h-223c-60 0-113-51-129-124a27 27 0 1 0-54 12c22 98 97 166 183 166h222z m-111 28h-1a195 195 0 0 0-193 195v52a195 195 0 0 0 194 194h1l0 0a195 195 0 0 0 194-194v-52a195 195 0 0 0-195-195m1 386h-1a140 140 0 0 1-139-139v-52a140 140 0 0 1 139-140h0a140 140 0 0 1 140 140v52a140 140 0 0 1-139 139m581 176a154 154 0 0 0 37-102l0-706c0-81-60-147-133-147h-971c-37 0-70 16-96 45a154 154 0 0 0-37 102v706c0 81 60 147 133 147h971c36 0 70-16 96-45m-1067-876h971c29 0 54 31 54 68v706c0 19-6 37-18 50-10 12-23 18-36 18h-971c-29 0-54-31-54-68v-706c0-19 6-37 18-50a48 48 0 0 1 36-18h0z" horiz-adv-x="1236.8" />

<glyph glyph-name="account-loggedin-colors" unicode="&#xea43;" d="M717 112l64 90a23 23 0 0 1-38 26l-57-81-40-57-14-20-57 68-1 1a23 23 0 0 1-27 5 23 23 0 0 1-5-3 23 23 0 0 1-3-32l78-91a23 23 0 0 1 17-8l1 0a23 23 0 0 1 18 10l22 31 42 61z m-331 34a274 274 0 0 0 273 253 274 274 0 1 0-274-275c0 8 1 15 1 22m-186 383v68a184 184 0 1 0 369 0v-68a184 184 0 0 0-369 0m396-138a251 251 0 0 1 41 138v68a253 253 0 1 1-506 0v-68a253 253 0 0 1 303-248 274 274 0 0 0 162 110m-357-176c-112 0-210-89-238-217a34 34 0 0 1 67-15 189 189 0 0 0 171 163h147a271 271 0 0 0 15 69h-162z" horiz-adv-x="933.5" />

<glyph glyph-name="account-loggedin" unicode="&#xea44;" d="M659 399c-22 0-43-3-64-8l1 0a251 251 0 0 1 41 138v68a253 253 0 1 1-506 0v-68a253 253 0 0 1 303-248c1 1 2 1 2 2a273 273 0 0 1-36-72c0 1 0 2 1 4h-162c-112 0-210-89-238-217a34 34 0 1 1 67-15 189 189 0 0 0 171 163h147a278 278 0 0 1-1-22 274 274 0 1 1 274 275m-275-54a184 184 0 0 0-184 184v68a184 184 0 0 0 369 0v-68a184 184 0 0 0-185-184m165 30c0 0-1 0-2-1 1 1 2 1 2 1m-43-23l-3-3 3 3m-38-31c-1-1-2-3-3-4 1 1 2 3 3 4m-76-136c0-2-1-5-1-7 0 2 1 5 1 7m265-265a204 204 0 0 0-106 31 206 206 0 0 0-68 68 205 205 0 0 0-13 190 206 206 0 0 0 189 122 208 208 0 0 0 205-206 206 206 0 0 0-207-205m86 308l-57-81-40-57-14-20-57 68-1 1a23 23 0 0 1-27 5 23 23 0 0 1-5-3 23 23 0 0 1-3-32l78-91a23 23 0 0 1 17-8l1 0a23 23 0 0 1 18 10l22 31 42 61 64 90a23 23 0 0 1-38 26" horiz-adv-x="933.4" />

<glyph glyph-name="account" unicode="&#xea45;" d="M593 139c125 0 235-100 266-242a38 38 0 0 0-37-47 39 39 0 0 0-38 30c-23 107-102 182-191 182h-325c-90 0-168-75-192-182a38 38 0 0 0-46-29 38 38 0 0 0-29 46c31 142 141 242 267 242h325z m120 352a283 283 0 0 0-283-283 283 283 0 0 0-283 283v76a283 283 0 0 0 283 283 283 283 0 0 0 283-283v-76z m-283 282a207 207 0 0 1-206-206v-76a207 207 0 0 1 206-207 206 206 0 0 1 206 207v76a206 206 0 0 1-206 206" horiz-adv-x="860.1" />

<glyph glyph-name="login" unicode="&#xea46;" d="M236-45l-131 14v762l131 14c28 3 48 29 45 58-3 29-28 50-56 47l-179-19a49 49 0 0 1-29-14c-1-1-1-2-2-3a48 48 0 0 1-7-9c-2-3-3-6-5-9 0-2 0-4-1-6-1-4-2-7-2-11v-858c0-4 1-7 2-11 1-2 1-4 1-6 2-3 3-6 5-9 2-3 4-7 7-9 1-1 1-2 2-3 8-7 18-13 29-14l179-19c28-3 53 18 56 47 3 29-17 55-45 58m3 378c3-7 7-13 13-18l230-230a48 48 0 0 1 68 0 48 48 0 0 1 0 68l-150 150 383-1h0a48 48 0 0 1 0 96l-385 1 152 152a48 48 0 0 1 0 68 48 48 0 0 1-68 0l-233-233a48 48 0 0 1-10-53" horiz-adv-x="830.7" />

<glyph glyph-name="logout" unicode="&#xea47;" d="M236-45l-131 14v762l131 14c28 3 48 29 45 58-3 29-28 50-56 47l-179-19a49 49 0 0 1-29-14c-1-1-1-2-2-3a48 48 0 0 1-7-9c-2-3-3-6-5-9 0-2 0-4-1-6-1-4-2-7-2-11v-858c0-4 1-7 2-11 1-2 1-4 1-6 2-3 3-6 5-9 2-3 4-7 7-9 1-1 1-2 2-3 8-7 18-13 29-14l179-19c28-3 53 18 56 47 3 29-17 55-45 58m591 415a47 47 0 0 1-13 19l-230 230a48 48 0 0 1-68 0 48 48 0 0 1 0-68l150-150-383 0h0a48 48 0 0 1 0-96l385 0-152-152a48 48 0 0 1 0-68 48 48 0 0 1 68 0l233 233a48 48 0 0 1 10 52" horiz-adv-x="830.7" />

<glyph glyph-name="activation-active" unicode="&#xea48;" d="M1194 350a207 207 0 0 0 206 206 206 206 0 0 0 0-412 207 207 0 0 0-206 206m112-500h-806c-276 0-500 224-500 500s224 500 500 500h806c276 0 500-224 500-500s-224-500-500-500m-806 880c-209 0-380-171-380-380s171-380 380-380h806c210 0 380 171 380 380s-170 380-380 380h-806z m130-192l-98-141-69-99-24-34-100 117-1 1a39 39 0 0 1-47 10 41 41 0 0 1-9-5 40 40 0 0 1-14-27 40 40 0 0 1 10-29l134-157a40 40 0 0 1 30-14h2a40 40 0 0 1 30 17l38 54 73 104 110 157a40 40 0 1 1-65 46" horiz-adv-x="1806.3" />

<glyph glyph-name="activation-inactive" unicode="&#xea49;" d="M296 350c0 114 92 206 206 206s206-92 206-206a207 207 0 0 0-206-206 207 207 0 0 0-206 206m1010-500h-806c-276 0-500 224-500 500s224 500 500 500h806c276 0 500-224 500-500s-224-500-500-500m-806 880c-209 0-380-171-380-380s171-380 380-380h806c210 0 380 171 380 380s-170 380-380 380h-806z m883-380l142 142a49 49 0 0 1-69 69l-143-143-143 143a49 49 0 0 1-69-69l142-142-142-144a50 50 0 0 1 0-69c9-10 21-15 35-15s25 5 34 15l143 144 143-144a48 48 0 0 1 35-15h0a49 49 0 0 1 34 84l-142 144z" horiz-adv-x="1806.3" />

<glyph glyph-name="activation" unicode="&#xea4a;" d="M296 350c0 114 92 206 206 206s206-92 206-206a207 207 0 0 0-206-206 207 207 0 0 0-206 206m1010-500h-806c-276 0-500 224-500 500s224 500 500 500h806c276 0 500-224 500-500s-224-500-500-500m-806 880c-209 0-380-171-380-380s171-380 380-380h806c210 0 380 171 380 380s-170 380-380 380h-806z" horiz-adv-x="1806.3" />

<glyph glyph-name="lock" unicode="&#xea4b;" d="M710 472h-89v128c0 137-113 250-251 250-137 0-250-113-250-250v-128h-97a23 23 0 0 1-23-23v-576c0-13 10-23 23-23h687a23 23 0 0 1 23 23v576a23 23 0 0 1-23 23m-505 128a166 166 0 0 0 165 165 166 166 0 0 0 166-165v-128h-331v128z m443-665h-563v452h35v-1h501v1h27v-452z" horiz-adv-x="733.1" />

<glyph glyph-name="unlock" unicode="&#xea4c;" d="M710 472h-498v109c0 101 74 184 166 184 71 0 134-50 157-125a43 43 0 0 1 81 26c-34 110-130 184-238 184-139 0-251-121-251-269v-109h-104a23 23 0 0 1-23-23v-576c0-13 10-23 23-23h687a23 23 0 0 1 23 23v576a23 23 0 0 1-23 23z m-625-537h563v452h-563v-452z" horiz-adv-x="733.3" />

<glyph glyph-name="validate" unicode="&#xea4d;" d="M919 808l-249-356-176-251-61-87-253 296-3 4a99 99 0 0 1-118 24 99 99 0 0 1-24-13 100 100 0 0 1-11-142l341-398a100 100 0 0 1 76-35l5 0a101 101 0 0 1 77 43l97 137 185 264 279 398a100 100 0 0 1-165 116" horiz-adv-x="1101.7" />

<glyph glyph-name="alert-circle-full" unicode="&#xea4e;" d="M500 850c-276 0-500-224-500-500s224-500 500-500c276 0 500 224 500 500s-224 500-500 500m43-748a59 59 0 0 0-42-16 59 59 0 0 0-41 16c-12 11-18 25-18 42 0 17 6 31 18 42 11 12 25 17 41 17 17 0 31-5 42-17 12-11 17-25 17-42 0-17-5-31-17-42m-4 171a21 21 0 0 0-21-18h-33a21 21 0 0 0-21 18c-4 28-22 271-22 320 0 12 10 21 22 21h75c12 0 22-9 22-21-1-49-19-292-22-320" horiz-adv-x="1000" />

<glyph glyph-name="alert-circle" unicode="&#xea4f;" d="M935 350a435 435 0 0 1-435 435 435 435 0 0 1-435-435 435 435 0 0 1 870 0m-935 0c0 276 224 500 500 500s500-224 500-500-224-500-500-500-500 224-500 500m501-147c-16 0-30-5-41-17a56 56 0 0 1-18-42c0-17 6-31 18-42 11-11 25-16 41-16 17 0 31 5 42 16 12 11 17 25 17 42 0 17-5 31-17 42a58 58 0 0 1-42 17m38 411h-75a22 22 0 0 1-22-21c0-49 18-292 22-320a21 21 0 0 1 21-18h33a21 21 0 0 1 21 18c3 28 21 271 22 320a22 22 0 0 1-22 21" horiz-adv-x="1000" />

<glyph glyph-name="bell" unicode="&#xea50;" d="M749 141a318 318 0 0 0-93 225v79a268 268 0 0 1-203 260v80a65 65 0 0 1-130 0v-80a268 268 0 0 1-203-260v-79a318 318 0 0 0-93-225 92 92 0 0 1 65-156h161a135 135 0 0 1 270 0h161a92 92 0 1 1 65 156m-361-225a69 69 0 0 0-69 68h137c0-37-30-68-68-68m320 150a26 26 0 0 0-24-15h-592a26 26 0 0 0-18 43 382 382 0 0 1 112 272v79c0 111 91 202 202 202s202-91 202-202v-79c0-103 40-199 112-272a26 26 0 0 0 6-28" horiz-adv-x="775.8" />

<glyph glyph-name="help-circle-full" unicode="&#xea51;" d="M500 850c-276 0-500-224-500-500s224-500 500-500 500 224 500 500-224 500-500 500m23-750a59 59 0 0 0-42-16c-16 0-30 5-42 16-11 11-17 25-17 42 0 17 6 31 17 42a58 58 0 0 0 42 17c17 0 31-6 42-17 11-11 17-25 17-42 0-17-6-31-17-42m110 345c-7-13-14-25-24-37s-19-22-30-32c-11-10-21-20-30-31-10-10-17-22-23-33s-10-25-10-40v-9c0-3 1-6 1-9h-77a140 140 0 0 0-2 16 198 198 0 0 0-1 16c0 16 3 31 8 43s13 25 21 36 17 21 27 30 19 19 27 28c8 9 15 19 21 29 5 10 8 21 8 32a53 53 0 0 1-17 41c-11 10-28 15-50 15-17 0-33-2-49-6a229 229 0 0 1-50-20l-25 69a257 257 0 0 0 63 24 281 281 0 0 0 72 10c29 0 54-5 73-13 19-8 34-18 46-30 11-13 19-26 23-41 5-15 7-29 7-43 0-16-3-31-9-45" horiz-adv-x="1000" />

<glyph glyph-name="help-circle" unicode="&#xea52;" d="M482 540c-17 0-33-2-49-6a227 227 0 0 1-50-20l-25 69c19 10 39 18 63 24s47 9 72 9c29 0 54-4 73-12 19-8 34-18 45-30 12-13 20-26 24-41 5-15 7-29 7-43 0-16-3-31-9-45-7-13-14-25-24-37s-19-22-30-32c-11-10-21-20-30-31a168 168 0 0 1-24-33 85 85 0 0 1-9-40v-9c0-3 1-6 1-9h-77a177 177 0 0 0-3 32c0 16 3 31 8 43a158 158 0 0 0 21 36c8 11 17 21 27 30 10 9 19 19 27 28 8 9 15 19 21 29 5 10 8 21 8 32 0 17-6 30-17 41-11 10-28 15-50 15m58-398c0-17-6-31-17-42a59 59 0 0 0-42-16 59 59 0 0 0-42 16c-11 11-17 25-17 42 0 17 6 31 17 42a58 58 0 0 0 42 17c17 0 31-6 42-17 11-11 17-25 17-42m395 208a435 435 0 0 1-435 435 435 435 0 0 1-435-435c0-240 195-435 435-435s435 195 435 435m-935 0c0 276 224 500 500 500s500-224 500-500-224-500-500-500-500 224-500 500" horiz-adv-x="1000" />

<glyph glyph-name="info-circle-full" unicode="&#xea53;" d="M500 850c-276 0-500-224-500-500s224-500 500-500 500 224 500 500-224 500-500 500m-42-257a61 61 0 0 0 44 17c17 0 32-5 44-17 12-11 18-26 18-44s-6-33-18-44a61 61 0 0 0-44-18c-17 0-32 6-44 18-12 11-18 26-18 44s6 33 18 44m5-178a22 22 0 0 0 22 18h35c11 0 20-8 21-18 4-30 6-284 7-335a23 23 0 0 0-23-23h-46a23 23 0 0 0-22 23c0 51 2 305 6 335" horiz-adv-x="1000" />

<glyph glyph-name="info-circle" unicode="&#xea54;" d="M935 350a435 435 0 0 1-435 435 435 435 0 0 1-435-435c0-240 195-435 435-435s435 195 435 435m-935 0c0 276 224 500 500 500s500-224 500-500-224-500-500-500-500 224-500 500m458 243a61 61 0 0 0 44 17c17 0 32-5 44-17 12-11 18-26 18-44s-6-33-18-44-27-18-44-18c-17 0-32 6-44 18-12 11-18 26-18 44s6 33 18 44m5-178a22 22 0 0 0 22 18h35c11 0 20-8 21-18 4-30 6-284 7-335a23 23 0 0 0-23-23h-46a23 23 0 0 0-22 23c0 51 2 305 6 335" horiz-adv-x="1000" />

<glyph glyph-name="list-added-double-colors" unicode="&#xea55;" d="M208 192a39 39 0 1 0 77 0 39 39 0 0 0-77 0m154 23a23 23 0 0 1 0-46h0l40 0c3 15 7 31 12 46l-52 0z m-77 169a39 39 0 1 0-77 0 39 39 0 0 0 77 0m308 23h-231a23 23 0 1 1 0-46h169a273 273 0 0 0 82 34 23 23 0 0 1-20 12m-308 170a39 39 0 1 0-77 0 39 39 0 0 0 77 0m308 23h-231a23 23 0 0 1 0-46h231a23 23 0 1 1 0 46m-473-576a54 54 0 0 0-36 14 47 47 0 0 0-15 34l0 661c0 12 5 25 15 33 9 10 22 15 36 15l561 0a49 49 0 0 0 51-48l0-337a274 274 0 0 0 69-25l0 362a119 119 0 0 1-119 117h-1l-561 0a120 120 0 0 1-85-34 115 115 0 0 1-35-83l0-661a115 115 0 0 1 36-83c22-22 52-34 83-34h1l338 0a275 275 0 0 0-39 69l-299 0z m612 93l65 91a23 23 0 1 1-38 27l-27-39-85-119-58 69a23 23 0 1 1-35-30l77-92a3 3 0 0 1 1 0l0 0a23 23 0 0 1 17-8h1a23 23 0 0 1 15 8 6 6 0 0 0 1 1c1 0 1 0 2 1l64 91z m0 279a274 274 0 0 0 69-25 276 276 0 0 0-198-512 276 276 0 0 0-201 310 274 274 0 0 0 211 226 273 273 0 0 0 119 1" horiz-adv-x="950.4" />

<glyph glyph-name="list" unicode="&#xea58;" d="M232 115a43 43 0 1 0 86 0 43 43 0 0 0-86 0m431 25h-1l-258 0a26 26 0 0 1 0-51h0l258 0a26 26 0 0 1 1 51m-345 190a43 43 0 1 0-86 0 43 43 0 0 0 86 0m86-26h258a26 26 0 0 1 0 52h-258a26 26 0 0 1 0-52h0z m-86 241a43 43 0 1 0-86 0 43 43 0 0 0 86 0m86-26h258a26 26 0 0 1 26 26 26 26 0 0 1-26 26h-258a26 26 0 0 1 0-52m490 200a129 129 0 0 1-39 93 134 134 0 0 1-93 38h-1l-627 0a135 135 0 0 1-94-38 129 129 0 0 1-40-93l0-738c0-72 60-131 133-131h1l627 0c35 0 69 14 94 38 26 25 40 58 40 93l-1 738z m-93-776a57 57 0 0 0-40-16l-627 0h0c-31 0-57 24-57 54l0 738c0 14 6 27 16 38 11 10 26 16 41 16l627 0h0c15 0 29-6 40-16 11-10 16-24 16-38l1-738c0-14-6-27-17-38" horiz-adv-x="894.6" />

<glyph glyph-name="lists" unicode="&#xea59;" d="M350 0a50 50 0 1 1 0-100h600a50 50 0 1 1 0 100h-600z m-50 350c0 28 22 50 50 50h600a50 50 0 1 0 0-100h-600a50 50 0 0 0-50 50m50 450a50 50 0 1 1 0-100h600a50 50 0 1 1 0 100h-600z m-150-850a100 100 0 1 0-200 0 100 100 0 0 0 200 0m0 400a100 100 0 1 0-200 0 100 100 0 0 0 200 0m-100 300a100 100 0 1 1 0 200 100 100 0 0 1 0-200" horiz-adv-x="1000" />

<glyph glyph-name="facebook" unicode="&#xea5a;" d="M460 526h-156v104c0 39 25 48 43 48h111v171l-152 1c-170 0-208-128-208-210v-114h-98v-176h98v-500h206v500h138l18 176z" horiz-adv-x="460.4" />

<glyph glyph-name="google-plus" unicode="&#xea5b;" d="M1466 564c1-47 1-94 1-142 25 0 49 0 73 0 25 0 49 0 74-1v-142l-74 0-73-1c0-48 0-95-1-143h-146a11540 11540 0 0 0 0 72l-1 71-146 1v142c49 1 98 1 146 1 1 48 1 96 2 143h145v-1z m-953-313c0 57-1 114 0 171 163 0 326 0 489-1 10-134-8-276-92-386-128-175-384-227-583-152-201 75-343 281-326 492 5 258 248 483 512 475 126 5 245-48 342-124a1805 1805 0 0 0-130-131c-117 78-282 101-399 10-166-112-174-378-14-499 156-138 451-69 494 142-38 1-76 1-114 1-59 0-119 0-179 2" horiz-adv-x="1613.5" />

<glyph glyph-name="google" unicode="&#xea5c;" d="M513 251c0 57-1 114 0 171 163 0 326 0 489-1 10-134-8-276-92-386-128-175-384-227-583-152-201 75-343 282-326 492 5 258 248 483 512 475 126 5 245-48 342-124a1797 1797 0 0 0-130-131c-117 78-282 101-399 10-166-112-174-378-14-499 156-138 451-69 494 142-38 1-76 1-114 1-60 0-119 0-179 2" horiz-adv-x="1004.7" />

<glyph glyph-name="instagram" unicode="&#xea5d;" d="M903 43a96 96 0 0 0-96-96h-614a96 96 0 0 0-96 96v410h150a271 271 0 0 1-20-103 274 274 0 0 1 273-273 274 274 0 0 1 274 273c0 36-8 71-21 103h150v-410z m-153 648a82 82 0 0 0 67 34 82 82 0 0 0 66-34c10-14 16-30 16-48 0-46-37-82-82-82a82 82 0 0 0-83 82c0 18 6 34 16 48m-393-238a176 176 0 0 0 143 73 176 176 0 0 0 143-73 175 175 0 0 0 33-103 176 176 0 0 0-176-176 176 176 0 0 0-176 176c0 38 12 74 33 103m450 397h-614a193 193 0 0 1-193-193v-614a193 193 0 0 1 193-193h614a193 193 0 0 1 193 193v614a193 193 0 0 1-193 193" horiz-adv-x="1000" />

<glyph glyph-name="mail" unicode="&#xea5e;" d="M1102 850h-968c-74 0-134-66-134-148v-704c0-82 60-148 134-148h968c74 0 134 66 134 148v704c0 82-60 148-134 148m-968-82h968c21 0 40-18 48-42l-380-381a215 215 0 0 0-304 0l-380 381c8 24 27 42 48 42m968-836h-968c-28 0-52 30-52 66v663l350-350a263 263 0 0 1 186-77 263 263 0 0 1 186 77l350 350v-663c0-36-24-66-52-66" horiz-adv-x="1236" />

<glyph glyph-name="pinterest" unicode="&#xea5f;" d="M431 850c-287 0-431-196-431-359 0-99 39-186 123-219 14-6 27 0 31 14 2 10 9 36 12 46 4 15 2 20-9 32-24 28-40 63-40 113 0 145 115 275 297 275 162 0 251-94 251-220 0-166-77-305-191-305-63 0-110 49-95 110 18 73 53 151 53 204 0 47-26 86-81 86-65 0-116-63-116-148 0-55 19-91 19-91l-78-313c-23-93-3-207-2-219 1-7 11-8 15-3 6 7 83 98 109 188 7 26 42 158 42 158 21-38 82-72 147-72 194 0 326 169 326 394 0 170-152 329-382 329" horiz-adv-x="812.5" />

<glyph glyph-name="print" unicode="&#xea60;" d="M803 645h-26v57a148 148 0 0 1-148 148h-310a148 148 0 0 1-148-148v-57h-23a148 148 0 0 1-148-148v-238a148 148 0 0 1 148-148h23v-187a74 74 0 0 1 74-74h458c41 0 74 33 74 74v187h26a148 148 0 0 1 147 148v238a148 148 0 0 1-147 148m-576 57a92 92 0 0 0 92 92h310c50 0 92-41 92-92v-57h-494v57z m494-779a18 18 0 0 0-18-18h-458a18 18 0 0 0-18 18v309h494v-309z m174 336a92 92 0 0 0-92-92h-26v65h37a28 28 0 0 1 28 28 28 28 0 0 1-28 28h-684a28 28 0 0 1-28-28c0-15 12-28 28-28h41v-65h-23a92 92 0 0 0-92 92v238a92 92 0 0 0 92 92h655a92 92 0 0 0 92-92v-238z m-600-164h356a28 28 0 0 1 28 28 28 28 0 0 1-28 28h-356a28 28 0 0 1 0-56m358-59h-356a28 28 0 0 1-28-28c0-15 12-28 28-28h356a28 28 0 0 1 28 28 28 28 0 0 1-28 28m149 499h-57c-15 0-28-12-28-28s13-28 28-28h57c16 0 28 13 28 28s-12 28-28 28" horiz-adv-x="950.4" />

<glyph glyph-name="share" unicode="&#xea61;" d="M739 145a147 147 0 0 1-116-56l-338 195a147 147 0 0 1 0 110l342 212a147 147 0 0 1 112-51 148 148 0 1 1-136 89l-341-211a148 148 0 1 1 0-188l338-196a148 148 0 0 1-9-51 148 148 0 1 1 148 147" horiz-adv-x="886.4" />

<glyph glyph-name="twitter" unicode="&#xea62;" d="M1296 732a551 551 0 0 0-153-40 256 256 0 0 1 117 140 549 549 0 0 0-169-62 272 272 0 0 1-194 80c-147 0-266-113-266-252 0-20 3-39 7-58-221 11-417 111-548 264a242 242 0 0 1-36-127c0-88 47-165 118-210a275 275 0 0 0-120 31l0-3c0-122 92-224 213-247a280 280 0 0 0-120-5c34-100 132-173 249-175a551 551 0 0 0-331-108 564 564 0 0 0-63 3 781 781 0 0 1 407-113c489 0 757 385 757 718 0 11-1 22-1 33a525 525 0 0 1 133 131" horiz-adv-x="1295.5" />

<glyph glyph-name="youtube" unicode="&#xea63;" d="M566 166l0 399 385-200-385-199z m845 468s-14 98-57 141c-54 57-114 57-142 61-200 14-499 14-499 14h-1s-299 0-498-14c-28-4-89-4-143-61-43-43-57-141-57-141s-14-115-14-230v-108c0-115 14-230 14-230s14-98 57-141c54-57 125-55 157-61 114-11 485-14 485-14s299 0 499 15c28 3 88 3 142 60 43 43 57 141 57 141s14 115 14 230v108c0 115-14 230-14 230" horiz-adv-x="1425.3" />

<glyph glyph-name="delivery-carrefour" unicode="&#xea66;" d="M743 620a4 4 0 0 1-3 1c-1 0-2-1-2-3a5 5 0 0 1 0-2c17-21 26-47 27-74a50 50 0 0 0-49-55 49 49 0 0 0-46 48c1 19 9 36 24 48a15 15 0 0 1 4 11c0 17-31 38-67 38-60 0-83-85-83-187s23-186 83-186c36 0 67 22 67 39a15 15 0 0 1-4 11 67 67 0 0 0-24 47 49 49 0 0 0 46 49 50 50 0 0 0 49-55 129 129 0 0 0-27-74 5 5 0 0 1 0-3c0-1 1-3 2-3a5 5 0 0 1 3 2l154 149a31 31 0 0 1 0 50l-154 149z m-225-2a2 2 0 0 1 0 2 2 2 0 0 1-2 1 4 4 0 0 1-3-1l-154-149a31 31 0 0 1 0-50l154-149c1-1 2-1 3-1 0 0 1 0 2 0s0 2 0 2a4 4 0 0 1-1 3 256 256 0 0 0-62 169 259 259 0 0 0 62 170 4 4 0 0 1 1 3m817-484a464 464 0 0 0-88-58 187 187 0 0 1-367-13l-344-1a186 186 0 0 1-369 0h-30a1275 1275 0 0 0-22 62 51 51 0 0 1-4 9 187 187 0 0 0-13 140 45 45 0 0 1 3 14v450c0 13 3 20 9 22l652-1c13 0 25 0 36 0 63 10 125-17 161-69 97-118 152-185 181-221l27-33a49 49 0 0 1 6-7 47 47 0 0 1 13-9l9-4a216 216 0 0 0 100-82c22-65 36-132 40-199m-271-194a97 97 0 1 0 0 194 97 97 0 0 0 0-194z m-713 0a97 97 0 1 0 0 194 97 97 0 0 0 0-194z m1030 417a46 46 0 0 1-4 14 298 298 0 0 1-142 125l-2 1c-7 8-14 18-23 29-30 36-85 103-182 221a252 252 0 0 1-231 101c-11 0-22 0-34 0l-658 1c-1 1-4 0-6 0a107 107 0 0 1-88-111v-443a277 277 0 0 1 20-203c30-96 42-120 79-120h67a186 186 0 0 1 349 0l363 0a186 186 0 0 1 352 6 439 439 0 0 1 171 106c12 17 34 48-31 273" horiz-adv-x="1425.4" />

<glyph glyph-name="delivery-delivery" unicode="&#xea67;" d="M1335 134a464 464 0 0 0-88-58 187 187 0 0 1-367-13l-344-1a186 186 0 0 1-369 0h-30a1275 1275 0 0 0-22 62 51 51 0 0 1-4 9 187 187 0 0 0-13 140 45 45 0 0 1 3 14v450c0 13 3 20 9 22l652-1c13 0 25 0 36 0 63 10 125-17 161-69 97-118 152-185 181-221l27-33a49 49 0 0 1 6-7 47 47 0 0 1 13-9l9-4a216 216 0 0 0 100-82c22-65 36-132 40-199m-271-194a97 97 0 1 0 0 194 97 97 0 0 0 0-194z m-713 0a97 97 0 1 0 0 194 97 97 0 0 0 0-194z m1030 417a46 46 0 0 1-4 14 298 298 0 0 1-142 125l-2 1c-7 8-14 18-23 29-30 36-85 103-182 221a252 252 0 0 1-231 101c-11 0-22 0-34 0l-658 1c-1 1-4 0-6 0a107 107 0 0 1-88-111v-443a277 277 0 0 1 20-203c30-96 42-120 79-120h67a186 186 0 0 1 349 0l363 0a186 186 0 0 1 352 6 439 439 0 0 1 171 106c12 17 34 48-31 273" horiz-adv-x="1425.4" />

<glyph glyph-name="walkin-drive" unicode="&#xea6a;" d="M74-15c-31 20-40 58-20 87l142 199 226-138-140-197c-21-30-65-38-98-18l-110 67z m452 256c-45 32-51 49-43 102a17 17 0 0 1 0 3l21 83 27 14a22 22 0 0 1-19 38l-36-17a22 22 0 0 1-12-15l-24-99c-5-15-25-24-43-19-18 5-28 22-23 37l27 105c5 16 19 31 37 41l109 54a217 217 0 0 0 78 29c18 0 38-8 52-22 13-13 19-32 17-49l-38-227c-7-26 5-54 30-69l84-68c14-12 23-30 25-48l19-178c1-13-6-27-20-35-13-9-31-10-46-4-15 7-24 20-25 34l-18 165a22 22 0 0 1-9 14l-170 131z m82-117l-75 57-71-235c-7-21 6-43 29-50 24-7 49 5 57 25l60 203z m244 187l-134 100 12 69 165-121c15-11 17-29 7-42-12-14-34-17-50-6m-475-26v-73l-83 50 72 29c5 0 9-3 11-6m120-77l-22-72a22 22 0 0 1-10 22l-45 27v102a80 80 0 0 1 18 5c4-33 22-56 59-84m102 576a78 78 0 1 1 56 23c-21 0-41-8-56-23m56 66a121 121 0 0 0 121-121 121 121 0 0 0-79-114c4-3 7-6 11-9 20-21 31-49 29-78l183-134c35-25 42-72 15-104-26-32-74-38-108-14l-117 88-12-74c-2-9 1-18 12-25l87-69a116 116 0 0 0 41-78l19-178a82 82 0 0 0-40-76 94 94 0 0 0-87-6c-29 13-48 39-50 69l-17 155-19 14-55-188c-16-43-64-67-111-54-46 14-72 61-57 105l52 172a22 22 0 0 0-2-4l-154-216c-34-48-104-62-156-30l-109 67c-53 32-68 99-33 148l154 217a22 22 0 0 0 29 6l46-28 90 35a67 67 0 0 0-5 54l27 105a118 118 0 0 0 59 67l107 54a246 246 0 0 0 57 25 122 122 0 0 0-14 183 121 121 0 0 0 86 36" horiz-adv-x="951.4" />

<glyph glyph-name="belgium-map" unicode="&#xea6b;" d="M869-150c-22 0-44 3-65 13a30 30 0 0 0-4 2c-33 21-37 50-40 69a98 98 0 0 1-1 7c-4 19-46 44-61 49a388 388 0 0 0-34 4c-11 2-20 5-28 10-31 17-39 47-23 78 0 2 1 3 2 5a53 53 0 0 1-1 13 135 135 0 0 0-63-23 204 204 0 0 0-93 8 107 107 0 0 0-24 12c-16 10-21 23-23 31-2 13 1 26 10 38 2 3 4 6 6 8a48 48 0 0 0-11 19c-7 21 3 39 7 46 3 7 8 14 12 20l1 0a161 161 0 0 1-25 5c-11 1-22 2-34 2-11 1-21 2-32 3-14 1-35 5-47 21-13 17-11 37-8 52 0 2 1 4 1 5l0 2 1 1-3 0-11 0c-8 0-15 0-23 0-39 2-67 27-72 66-1 10-2 20-2 30-1 10-1 19-3 28a95 95 0 0 1-1 9l-2-1c-34-34-83-34-116-1-12 13-28 33-35 57-11 37-17 75-22 107-6 38 1 52 34 67l5 3c22 11 44 23 65 34a2001 2001 0 0 0 144 72c22 10 39 4 47-1 8-5 21-18 23-44 0-3 0-7 0-10v-3l13 1c27 1 47 1 58-1l6-1c38-7 54-8 60-8 4 3 8 7 11 11 12 13 28 12 41 12 8-1 17-1 22 1a254 254 0 0 1 1 5c1 14 4 57 54 59 6 1 12 0 20-2 19-3 52-9 75 1 20 9 50 14 76 1 17-9 29-26 33-46 5-13 9-25 14-38l6-17a50 50 0 0 0 3-8c1-5 2-7 12-8a660 660 0 0 0 89-17c32-8 59-26 82-53 28-34-32-145-33-146l-2-3a207 207 0 0 1-9-19c10-2 22-3 28-2 46 4 66-22 74-44 0-1 0-1 0-2 2-1 5-2 7-3 13-4 37-12 45-40 5-21-3-38-9-49 2-1 3-2 5-3 18-12 61-41 31-105a27 27 0 0 0-3-5c-7-9-18-15-62-38-28-15-79-43-89-54l-2-2c-27-25-43-58-37-76 4-12 9-24 15-36 4-10 9-21 13-31 5-14 11-32 15-50 7-31-5-72-57-91a29 29 0 0 0-6-2c-17-2-34-4-51-4m-39 64c21-9 47-8 79-3 21 9 19 20 18 25a271 271 0 0 1-13 40c-4 10-8 19-12 28-6 14-12 27-16 41-18 49 16 104 51 137 16 17 53 37 104 64 15 9 35 19 43 24 5 13 2 15-14 26-9 6-20 13-28 24-13 21-2 42 3 52 2 2 3 5 4 8l-6 2c-12 4-38 12-44 41-2 5-3 5-14 4-13-1-63 2-82 19a33 33 0 0 0-12 24c-1 26 9 44 20 64l2 3c16 29 30 71 33 88a95 95 0 0 1-46 28 588 588 0 0 1-81 15c-33 4-54 20-61 50l-2 3-6 18c-5 12-10 25-14 38a37 37 0 0 0-2 6c-1 6-3 7-4 8-6 3-17 2-26-2-39-17-83-10-107-6l-7 2a391 391 0 0 1-1-6c-1-13-2-32-19-45-21-17-47-16-63-15l-3 0a215 215 0 0 0-14-13c-15-12-40-13-104 0l-5 1c-7 1-34 0-47-1a460 460 0 0 0-23 0c-28 1-45 17-48 45a115 115 0 0 0-1 12c-26-12-53-25-81-39-16-8-32-17-47-25-22-12-45-25-68-36l-5-2-3-2 1-5c5-31 10-66 20-100 3-10 11-22 21-33 14-14 28-5 35 2l6 6c3 3 5 5 8 8 12 12 25 17 39 15 9-1 21-6 31-23 10-17 14-34 16-46 2-12 3-23 3-34 1-9 1-18 2-26 1-9 5-15 18-16 6 0 13 0 19 0 5 1 9 1 14 1 22-1 38-7 48-20 10-13 13-30 9-51l-1-5a53 53 0 0 1-1-6l4 0c10-1 20-2 30-2 12-1 25-1 38-3 19-2 35-6 50-12 14-6 25-16 29-29 3-10 4-25-7-44a279 279 0 0 0-7-10c-4-5-7-10-9-14l-1 0 1-1a32 32 0 0 0 16-22c1-5 4-22-5-35a333 333 0 0 0-9-12l-2-2a45 45 0 0 1 2 0c21-8 43-10 68-6 25 3 43 14 55 34a30 30 0 0 0 41 10c25-14 42-91 26-118-1-1-1-2-2-4l-1-1 1-1a33 33 0 0 1 10-3c10-2 21-3 31-4 16-1 100-37 110-96l2-8c2-16 4-22 13-29m-130 76l0 0 0 0m-52 148v0 0z m-201 22l0 0 0 0m310 559z m-246 7z" horiz-adv-x="1143.4" />

<glyph glyph-name="localisation-carrefour" unicode="&#xea6c;" d="M377 850a377 377 0 0 1-377-377 370 370 0 0 1 33-154 2201 2201 0 0 1 304-451 52 52 0 0 1 79 0 2206 2206 0 0 1 304 451 368 368 0 0 1 34 154 377 377 0 0 1-377 377m284-504a2100 2100 0 0 0-284-423 2101 2101 0 0 0-285 423 305 305 0 0 0-27 127 312 312 0 0 0 623 0 303 303 0 0 0-27-127m-355 258a2 2 0 0 1 0 2 2 2 0 0 1-1 0 3 3 0 0 1-2-1l-98-95a20 20 0 0 1 0-32l98-96a3 3 0 0 1 2-1c0 0 1 1 1 1a2 2 0 0 1 0 1 3 3 0 0 1-1 2 164 164 0 0 0-39 109 166 166 0 0 0 39 109 3 3 0 0 1 1 1m144 1a3 3 0 0 1-2 1c0 0-1 0-1-1 0-1 0-2 0-2 11-14 17-30 17-47a32 32 0 0 0-31-36 31 31 0 0 0-30 31 43 43 0 0 0 16 31 9 9 0 0 1 3 7c0 11-20 25-43 25-39 0-54-55-54-120 0-66 15-120 54-120 23 0 43 14 43 25a9 9 0 0 1-3 7 43 43 0 0 0-16 30 31 31 0 0 0 30 32 32 32 0 0 0 31-36 83 83 0 0 0-17-47 3 3 0 0 1 0-2c0-1 1-2 1-2a3 3 0 0 1 2 1l99 96a20 20 0 0 1 0 32l-99 95z" horiz-adv-x="753.5" />

<glyph glyph-name="localisation-home" unicode="&#xea6d;" d="M377 850a377 377 0 0 1-377-377 370 370 0 0 1 33-154 2201 2201 0 0 1 304-451 52 52 0 0 1 79 0 2208 2208 0 0 1 304 451 369 369 0 0 1 34 154 377 377 0 0 1-377 377m284-504a2103 2103 0 0 0-284-424 2101 2101 0 0 0-285 424 305 305 0 0 0-27 127 312 312 0 0 0 623 0 303 303 0 0 0-27-127m-247 291a58 58 0 0 1-74 0l-137-112a44 44 0 0 1 20-77v-103c0-24 20-43 44-43h220a44 44 0 0 1 44 43v103a44 44 0 0 1 20 77l-137 112z m73-146v-146h-220v146h-37l137 112a15 15 0 0 0 19 0l137-112h-36z" horiz-adv-x="753.5" />

<glyph glyph-name="localisation" unicode="&#xea6e;" d="M205 478a168 168 0 0 1 167-168c93 0 168 75 168 168s-75 167-168 167a168 168 0 0 1-167-167m77 0c0 49 41 90 90 90 50 0 91-41 91-90a90 90 0 0 0-91-91 91 91 0 0 0-90 91m53-608a57 57 0 0 1 87 0c49 57 214 257 301 447a370 370 0 0 1 34 155c0 208-170 378-379 378s-378-170-378-378c0-55 11-107 33-155 87-191 253-390 302-447m-258 602a302 302 0 0 0 301 301 302 302 0 0 0 302-301c0-44-9-85-27-123-75-165-215-340-275-411-59 71-199 245-275 411a294 294 0 0 0-26 123" horiz-adv-x="756.6" />

<glyph glyph-name="localise-me" unicode="&#xea6f;" d="M885 382h83a32 32 0 1 0 0-64h-83a386 386 0 0 0-353-353v-83a32 32 0 0 0-64 0v83a386 386 0 0 0-353 353h-83a32 32 0 1 0 0 64h83a386 386 0 0 0 353 353v83a32 32 0 0 0 64 0v-83a387 387 0 0 0 353-353m-688-32a303 303 0 0 1 303-303c167 0 303 136 303 303s-136 303-303 303a303 303 0 0 1-303-303" horiz-adv-x="1000" />

<glyph glyph-name="bag-preparation-carrefour" unicode="&#xea70;" d="M302 267a1 1 0 0 1 0 1 2 2 0 0 1-1 0 3 3 0 0 1-2 0l-92-90a19 19 0 0 1 0-30l92-89a2 2 0 0 1 2-1c0 0 1 0 1 0s1 1 0 2a3 3 0 0 1 0 1 153 153 0 0 0-38 102 155 155 0 0 0 38 102 2 2 0 0 1 0 2m136 0a3 3 0 0 1-2 1c-1 0-1 0-1-1 0-1 0-1 0-2 10-13 16-28 16-44a30 30 0 0 0-7-23 30 30 0 0 0-22-10 30 30 0 0 0-28 29 40 40 0 0 0 14 28 9 9 0 0 1 3 7c0 10-19 23-40 23-37 0-51-51-51-112s14-112 51-112c21 0 40 13 40 23a9 9 0 0 1-3 7 41 41 0 0 0-14 28 30 30 0 0 0 28 29 30 30 0 0 0 29-33c0-16-6-31-16-44a3 3 0 0 1 0-2c0 0 0-1 1-1a3 3 0 0 1 2 1l93 89a19 19 0 0 1 0 30l-93 89z m296 514a146 146 0 0 1-100 67h0c-74 12-145-33-166-104l-47-149a200 200 0 0 1-123 56v29a30 30 0 0 1-30 30 30 30 0 0 1-31-28 165 165 0 0 1-84 47 161 161 0 0 1-143-33 30 30 0 0 1-8-34 159 159 0 0 1 116-90 195 195 0 0 1-39-125h-15c-16 0-30-13-30-32l22-411c2-86 74-155 162-154h319c42 0 81 16 111 44a156 156 0 0 1 48 110l23 412a30 30 0 0 1-29 30h-11l69 217a141 141 0 0 1-14 118m-669-114a94 94 0 0 0 72 8c25-6 47-22 63-45a93 93 0 0 0-72-9l0 0c-25 6-47 23-63 46m78-225a135 135 0 0 0 7 51c15 42 50 74 95 86 63 18 129-7 162-60l-25-77h-239z m410 70a25 25 0 0 1 3 19 26 26 0 0 1-30 19l-63-15 12 37 91 22a26 26 0 0 1 17 11 25 25 0 0 1 3 20 26 26 0 0 1-31 19l-62-15 12 38 89 21a25 25 0 1 1-11 49l-61-14 2 6a85 85 0 0 0 51 54 89 89 0 0 0 75-5c36-21 53-62 39-102l0-2 0-2-74-230h-183l12 37 93 22a25 25 0 0 1 16 11m100-132l-21-375a94 94 0 0 0-29-67 99 99 0 0 0-70-27h-311c-25 0-51 9-69 27a95 95 0 0 0-30 67l-20 376 550-1z" horiz-adv-x="755.1" />

<glyph glyph-name="bag-preparation-hand" unicode="&#xea71;" d="M681 37c-1-1-2-1-3-1-3-2-273-113-372-130a455 455 0 0 0-253 40v160h56c6 0 13 2 17 6 21 18 46 27 73 28h110a111 111 0 0 0 66-22 28 28 0 0 1 3-1 31 31 0 0 1 4-3 31 31 0 0 1 6-1c1 0 2 0 3 0h67a31 31 0 0 0 30-31v0a31 31 0 0 0-30-30h-140a27 27 0 0 1 0-54h140a84 84 0 0 1 81 66l124 52a41 41 0 0 0 18-79m82 62a94 94 0 0 1-115 68 37 37 0 0 1-4-1l-111-47a84 84 0 0 1-75 47h-60a163 163 0 0 1-89 27h-110a165 165 0 0 1-99-34h-73a27 27 0 0 1-27-26v-203c0-8 4-17 12-22a446 446 0 0 1 237-58c21 0 43 1 64 4 104 17 358 121 384 131a94 94 0 0 1 66 114z m-187 709a89 89 0 0 1-61 41h0c-46 7-89-21-102-64l-29-91a122 122 0 0 1-75 35v17a18 18 0 0 1-18 18 19 19 0 0 1-19-17 100 100 0 0 1-52 29 98 98 0 0 1-87-20 18 18 0 0 1-4-21 97 97 0 0 1 69-54l1-1a119 119 0 0 1-24-76h-9a19 19 0 0 1-18-20l14-251c1-53 45-95 99-94h194c26 0 50 9 68 27 19 17 29 42 30 67l13 252a19 19 0 0 1-17 18h-7l42 132a86 86 0 0 1-8 73m-409-70c14 8 29 9 44 5 15-4 29-14 38-28a57 57 0 0 0-43-5l-1 0a66 66 0 0 0-38 28m48-137a83 83 0 0 0 4 31 84 84 0 0 0 58 53c39 10 79-5 99-37l-15-47h-146z m250 42a15 15 0 0 1 2 12 16 16 0 0 1-19 11l-38-8 7 22 56 13a16 16 0 0 1 12 19 16 16 0 0 1-19 12l-38-9 8 23 54 13a16 16 0 0 1 12 10 15 15 0 0 1-3 16 16 16 0 0 1-16 4l-37-9 2 4c4 15 16 27 31 33 15 6 31 5 45-3 23-13 33-38 24-62l0-1 0-2-45-140h-112l8 22 56 13a16 16 0 0 1 10 7m61-80l-12-230a57 57 0 0 0-18-40 61 61 0 0 0-43-17h-190a63 63 0 0 0-42 17 59 59 0 0 0-19 41l-12 229 336 0z" horiz-adv-x="765.4" />

<glyph glyph-name="bag-preparation" unicode="&#xea72;" d="M734 781a146 146 0 0 1-100 67h0c-74 12-145-33-166-104l-47-149a200 200 0 0 1-123 56v29a30 30 0 0 1-30 30 30 30 0 0 1-31-28 165 165 0 0 1-84 47 161 161 0 0 1-143-33 30 30 0 0 1-8-34 159 159 0 0 1 116-90 195 195 0 0 1-39-125h-15c-16 0-30-13-30-32l22-411c2-86 74-155 162-154h319c42 0 81 16 111 44a156 156 0 0 1 48 110l23 412a30 30 0 0 1-29 30h-11l69 217a141 141 0 0 1-14 118m-669-114a94 94 0 0 0 72 8c25-6 47-22 63-45a93 93 0 0 0-72-9l0 0c-25 6-47 23-63 46m78-225a135 135 0 0 0 7 51c15 42 50 74 95 86 63 18 129-7 162-60l-25-77h-239z m410 70a25 25 0 0 1 3 19 26 26 0 0 1-30 19l-63-15 12 37 91 22a26 26 0 0 1 17 11 25 25 0 0 1 3 20 26 26 0 0 1-31 19l-62-15 12 38 89 21a25 25 0 1 1-11 49l-61-14 2 6a85 85 0 0 0 51 54 89 89 0 0 0 75-5c36-21 53-62 39-102l0-2 0-2-74-230h-183l12 37 93 22a25 25 0 0 1 16 11m100-132l-21-375a94 94 0 0 0-29-67 99 99 0 0 0-70-27h-311c-25 0-51 9-69 27a95 95 0 0 0-30 67l-20 376 550-1z" horiz-adv-x="755.1" />

<glyph glyph-name="bag-return" unicode="&#xea73;" d="M966 111a201 201 0 0 1-64 147 22 22 0 1 1-30-32 156 156 0 0 0-106-271c-1 0-1 0-1 0a2 2 0 0 0-1 0l24 24a22 22 0 0 1 0 31 22 22 0 0 1-31 0l-62-61a22 22 0 0 1 0-32l62-61c8-8 22-8 31 0a22 22 0 0 1 0 32l-24 23 0 0 1 0a3 3 0 0 1 1 0 200 200 0 0 1 200 200m-148 185l-61 61a22 22 0 0 1-31-31l23-24 0 0a3 3 0 0 1-1 0 200 200 0 0 1-136-347 22 22 0 1 1 30 32 156 156 0 0 0 106 271c0 0 0 0 1 0s0 0 0 0l-23-23a22 22 0 1 1 31-32l61 61a22 22 0 0 1 0 32m-94 359h-301v0a150 150 0 1 0 301 0v0z m241-22a69 69 0 0 1-50 22h-147v0a195 195 0 1 1-389 0v0h-161a55 55 0 0 1-55-59l9-196h-150a22 22 0 0 1 0-44h152l2-37h-95a22 22 0 1 1 0-45h97l2-37h-64a22 22 0 1 1 0-44h66l7-146a190 190 0 0 1 193-186h150a33 33 0 0 1 0 66h-150a124 124 0 0 0-126 122l-26 539 149 0v-84a22 22 0 0 1 44 0v84l301-1v-83a22 22 0 0 1 44 0v83l150-1-12-250 0 0v-1l0 0a33 33 0 0 1 9-23 4 4 0 0 1 1 0l1-1a33 33 0 0 1 9-6 33 33 0 0 1 9-2 36 36 0 0 1 4 0 33 33 0 0 1 33 33l12 247a69 69 0 0 1-19 50" horiz-adv-x="983.8" />

<glyph glyph-name="bag" unicode="&#xea74;" d="M901 39a125 125 0 0 0-127-122h-388a125 125 0 0 0-128 123l-26 545 151 0v-85a22 22 0 1 1 45 0v85l304-1v-84a22 22 0 1 1 45 0v84l150-1-26-544z m-473 614a152 152 0 0 0 228 132 152 152 0 0 0 76-132v-1h-304v1z m547-22a69 69 0 0 1-50 21h-148v1a197 197 0 1 1-394 0v-1h-162a56 56 0 0 1-56-58l9-199h-152a22 22 0 1 1 0-44h154l2-38h-96a22 22 0 0 1 0-45h98l2-37h-65a22 22 0 1 1 0-45h67l7-147a192 192 0 0 1 195-189h388a192 192 0 0 1 194 187l26 543c1 19-6 37-19 51" horiz-adv-x="994.4" />

<glyph glyph-name="app-carrefour" unicode="&#xea75;" d="M935 45c0-73-59-132-131-132h-609a132 132 0 0 0-132 132v610a132 132 0 0 0 132 132h609a132 132 0 0 0 131-132v-610z m-131 805h-609a195 195 0 0 1-195-195v-610a195 195 0 0 1 195-195h609a195 195 0 0 1 194 195v610a195 195 0 0 1-194 195m-437-292a3 3 0 0 1-3 4 5 5 0 0 1-3-2l-186-180a38 38 0 0 1 0-60l186-180a5 5 0 0 1 3-2 3 3 0 0 1 2 1 3 3 0 0 1 1 3 6 6 0 0 1-2 3 309 309 0 0 0-75 204 313 313 0 0 0 75 206 5 5 0 0 1 2 3m271 2a5 5 0 0 1-4 2c-1 0-2-2-2-4 0-1 0-2 1-3 19-25 30-56 31-89a60 60 0 0 0-59-66 59 59 0 0 0-55 58c1 23 11 43 28 58a18 18 0 0 1 6 13c0 21-37 46-81 46-72 0-101-103-101-226 0-122 29-224 101-224 44 0 81 25 81 46a18 18 0 0 1-6 13 82 82 0 0 0-28 58 59 59 0 0 0 55 59c17-1 33-8 45-21 11-13 16-29 14-46a157 157 0 0 0-31-89 5 5 0 0 1-1-3c0-2 1-4 2-4a5 5 0 0 1 4 2l185 180a38 38 0 0 1 0 60l-185 180z" horiz-adv-x="998.4" />

<glyph glyph-name="carrefour" unicode="&#xea76;" d="M639 850c-76 0-106-108-106-236 0-129 30-236 106-236 46 0 85 27 85 49a18 18 0 0 1-6 14 85 85 0 0 0-30 60 62 62 0 0 0 58 61c18 0 35-8 47-21 11-13 17-31 15-49a163 163 0 0 0-33-93 6 6 0 0 1-1-3c0-2 1-4 3-4a5 5 0 0 1 3 2l195 188a40 40 0 0 1 0 64l-195 188a5 5 0 0 1-3 2c-2 0-3-2-3-4 0-1 0-2 1-3 20-27 32-59 33-93a63 63 0 0 0-62-70 62 62 0 0 0-58 61c1 24 12 46 30 61a19 19 0 0 1 6 13c0 22-39 49-85 49z m-149-16a5 5 0 0 0 3 2 3 3 0 0 0 2-1c1-1 1-2 1-3a5 5 0 0 0-2-3 328 328 0 0 1-78-215 324 324 0 0 1 79-214c1-1 1-2 1-4a3 3 0 0 0-1-2 3 3 0 0 0-2-1 5 5 0 0 0-3 1l-195 188a40 40 0 0 0 0 64l195 188z m726-342a91 91 0 0 1-124-32 26 26 0 0 1-2-3l-44-108a81 81 0 0 1-83-19l-41-41a157 157 0 0 1-79-42l-75-75a159 159 0 0 1-45-91l-49-49a26 26 0 0 1 0-37l137-138a26 26 0 0 1 23-7 429 429 0 0 1 201 122c15 15 29 30 42 46 59 83 161 327 171 351a91 91 0 0 1-32 123m-13-98a22 22 0 0 1-2-3c-1-3-109-263-165-341a438 438 0 0 0-199-146l-109 109 38 38a26 26 0 0 1 8 16c1 26 12 50 31 69l74 74a107 107 0 0 0 60 30l3 1a23 23 0 0 1 9 5 17 17 0 0 1 2 2l46 45a30 30 0 0 0 41 0l1 0a29 29 0 0 0 0-41l-95-95a26 26 0 0 1 0-37 26 26 0 0 1 36 0l95 95a81 81 0 0 1 11 101l49 120a39 39 0 0 0 66-42m-1191-25c10-24 112-268 171-350 13-17 27-32 42-47a429 429 0 0 1 201-122 26 26 0 0 1 23 8l137 137a26 26 0 0 1 0 37l-49 49a159 159 0 0 1-45 91l-75 75a157 157 0 0 1-79 42l-41 41a81 81 0 0 1-83 19l-44 108a20 20 0 0 1-2 3 91 91 0 0 1-156-91m58 78a39 39 0 0 0 53-11l49-120a81 81 0 0 1 11-101l95-95a26 26 0 1 1 36 37l-95 95c-11 11-11 30 0 41l1 0a29 29 0 0 0 41 0l46-45a33 33 0 0 1 2-2 23 23 0 0 1 9-5 37 37 0 0 1 3-1c23-3 44-14 60-30l74-74c18-19 30-43 31-68a26 26 0 0 1 8-17l38-38-109-109a437 437 0 0 0-199 146c-57 78-164 338-165 341a21 21 0 0 1-2 3 39 39 0 0 0 13 53" horiz-adv-x="1259.8" />

<glyph glyph-name="caterer" unicode="&#xea77;" d="M142-43a183 183 0 0 0 88 58c34 6 69-6 92-33a37 37 0 0 0 5-5 36 36 0 0 0-5-46 28 28 0 0 0-42 4 43 43 0 0 1-39 15 139 139 0 0 1-58-42l-10-9a144 144 0 0 0-93-49c-8 0-15 1-22 3a96 96 0 0 0-51 37l0 1-1 0a35 35 0 0 0 6 47 29 29 0 0 0 42-6 37 37 0 0 1 19-15c14-4 34 6 60 31l9 9z m513-29a37 37 0 0 0-19-14c-15-3-35 8-60 33l-9 8a188 188 0 0 1-88 60 104 104 0 0 1-94-29 33 33 0 0 1-2-45c12-13 31-14 44-2a44 44 0 0 0 40 13c22-9 42-23 57-43l10-9a147 147 0 0 1 96-50c6 0 12 1 19 2 20 5 39 17 53 34a33 33 0 0 1-5 45 30 30 0 0 1-42-3h0z m-188 426c8-7 19-4 25 6 22 40 38 83 49 129 3 12-3 24-12 27-10 3-20-3-23-15a472 472 0 0 0-45-117c-5-10-3-24 6-30m-114-4h0c11 0 20 9 20 21l2 124c0 12-8 22-19 22-11 0-20-10-21-21l-2-124c0-12 9-22 20-22m-113 3c-9-6-20-2-25 8a493 493 0 0 0-48 129c0 0 0 0 0 1l0 0c-2 12 5 23 15 25 10 3 20-5 22-16 9-41 23-81 43-117l0 0 1-1c5-11 1-24-8-29m-146 70l-5-264a50 50 0 0 1 49-51h0l457-8h1a50 50 0 0 1 50 49l5 264a197 197 0 0 1 73 269 197 197 0 0 1-193 98 207 207 0 0 1-151 70 210 210 0 0 1-154-64 197 197 0 0 1-226-192 197 197 0 0 1 94-171m58-253l1 76 432-7-1-76-432 7z m-48 517a132 132 0 0 0 96 38c10 0 20-2 30-4a33 33 0 0 1 32 11 145 145 0 0 0 230-4c6-7 15-12 25-12h5a23 23 0 0 1 6 0 135 135 0 0 0 160-134 134 134 0 0 0-81-121 31 31 0 0 1-19-28l-2-153-432 8 3 153a31 31 0 0 1-18 29 135 135 0 0 0-76 123 133 133 0 0 0 41 94" horiz-adv-x="750" />

<glyph glyph-name="catering-service" unicode="&#xea78;" d="M692 158l-77 55h358v-55h-281z m-132-78a34 34 0 0 1-9-2h0l0-1a35 35 0 0 1-9-4l-87-73 36 222 182-131-113-11z m-494 78v55h357l-9-55h-348z m451 504a421 421 0 0 0 417-405h-380l-68 49a33 33 0 0 1-51-21l-5-28h-329a420 420 0 0 0 416 405z m2 144a34 34 0 1 0 0-67 34 34 0 0 0 0 67m480-527a488 488 0 0 1-420 444c11 14 18 31 18 49a78 78 0 0 1-155 0c0-17 6-35 18-49a487 487 0 0 1-424-446 57 57 0 0 1-36-53v-75c0-31 26-57 57-57h346l-27-168a33 33 0 0 1 54-31l120 100 51-123a33 33 0 0 1 61 25l-51 124 156 14a33 33 0 0 1 17 59h198a57 57 0 0 1 57 57v75a57 57 0 0 1-40 55z" horiz-adv-x="1038.6" />

<glyph glyph-name="chat-help" unicode="&#xea79;" d="M1013 58c37 0 71 14 97 40 26 26 40 61 40 98v516a138 138 0 0 1-138 138h-874a138 138 0 0 1-138-138v-516a138 138 0 0 1 138-138h29v-148a60 60 0 0 1 106-39l161 187h579z m-803 86h-72a52 52 0 0 0-52 52v516a52 52 0 0 0 52 52h874c29 0 52-23 52-52v-516a52 52 0 0 0-52-52h-598c-12 0-24-5-32-15l-129-148v120a43 43 0 0 1-43 43m375 462c-14 0-26-2-39-5-12-4-25-9-38-16l-20 53c14 8 31 15 49 20a218 218 0 0 0 56 7c23 0 42-3 57-10s26-14 35-24c9-9 15-20 19-31 3-12 5-23 5-33 0-13-3-25-7-35a137 137 0 0 0-19-29 273 273 0 0 0-23-25c-8-8-16-16-24-24-7-8-13-17-18-26a66 66 0 0 1-7-31v-7a40 40 0 0 1 1-7h-60a117 117 0 0 0-2 25c0 12 2 23 6 33 4 10 10 20 16 28a215 215 0 0 0 21 24c8 7 15 14 21 21a121 121 0 0 1 16 23 52 52 0 0 1 6 25 41 41 0 0 1-13 31c-8 8-21 13-38 13m45-310a44 44 0 0 0-14-33 46 46 0 0 0-32-13 46 46 0 0 0-33 13 43 43 0 0 0-13 33c0 13 4 24 13 33a45 45 0 0 0 33 13 45 45 0 0 0 46-46" horiz-adv-x="1150.3" />

<glyph glyph-name="chat" unicode="&#xea7a;" d="M835 197c30 0 59 12 80 33a113 113 0 0 1 33 80v426a114 114 0 0 1-113 114h-721a114 114 0 0 1-114-114v-426c0-62 51-113 114-113h24v-122a50 50 0 0 1 87-32l133 154h477z m-662 71h-59a43 43 0 0 0-43 43v425a43 43 0 0 0 43 43h721a43 43 0 0 0 42-43v-426a43 43 0 0 0-42-42h-493a36 36 0 0 1-27-12l-106-123v100a36 36 0 0 1-36 35m886 407a36 36 0 0 1-35-36c0-19 16-35 35-35a43 43 0 0 0 43-43v-426a43 43 0 0 0-43-42h-59a36 36 0 0 1-36-36v-99l-106 122a35 35 0 0 1-27 12h-436a36 36 0 0 1 0-71h420l134-154a49 49 0 0 1 54-14 49 49 0 0 1 32 47v122h24a114 114 0 0 1 114 113v426a114 114 0 0 1-114 114m-585-203a41 41 0 1 1 0 83 41 41 0 0 1 0-83m116 0a41 41 0 1 1 0 83 41 41 0 0 1 0-83m-232 0c23 0 42 19 42 41s-19 41-42 41a41 41 0 0 1 0-82" horiz-adv-x="1173" />

<glyph glyph-name="google-home" unicode="&#xea7b;" d="M262 691a33 33 0 1 1 0-65 33 33 0 0 1 0 65m200-11a33 33 0 1 0 7-36 33 33 0 0 0-7 36m-85-65a33 33 0 1 1 0-65 33 33 0 0 1 0 65m0 144a33 33 0 1 1 0-66 33 33 0 0 1 0 66m-105-846a217 217 0 0 0-209 221l5 67h619l5-64a217 217 0 0 0-209-224h-211z m387 656c-52-60-157-100-282-100h0c-124 0-229 40-281 100l-25-326h613l-25 326z m-7 85c0-78-126-143-275-143-148 0-274 65-274 143 0 6 1 11 2 17 18 58 124 116 273 116 148 0 254-58 272-116 1-6 2-11 2-17m64 1c-1 110-150 195-339 195-189 0-338-86-337-194l-40-519a280 280 0 0 1 272-287h211a281 281 0 0 1 272 289l-39 516z" horiz-adv-x="754.8" />

<glyph glyph-name="guarantee" unicode="&#xea7c;" d="M1088 424a81 81 0 0 1-113-31l-39-97a72 72 0 0 1-75-17l-36-36a140 140 0 0 1-71-38l-67-67a142 142 0 0 1-40-81l-44-45a23 23 0 0 1 0-32l123-123a23 23 0 0 1 20-7 383 383 0 0 1 180 109c13 13 26 27 37 42 53 73 145 292 154 314a81 81 0 0 1-29 109m-12-87a18 18 0 0 1-1-3c-1-3-98-235-148-305a391 391 0 0 0-178-130l-98 97 34 34a23 23 0 0 1 7 15c2 23 12 44 28 60l67 67a95 95 0 0 0 53 27 24 24 0 0 1 2 1 25 25 0 0 1 5 2 26 26 0 0 1 4 2 24 24 0 0 1 2 2l41 41c10 10 26 10 37 0l0-1a26 26 0 0 0 0-37l-85-85a23 23 0 1 1 33-32l84 85a72 72 0 0 1 10 90l44 107a35 35 0 0 0 59-37m-1066-22c10-22 101-241 154-314 11-15 24-29 37-42a383 383 0 0 1 180-109 23 23 0 0 1 20 7l123 123a23 23 0 0 1 0 32l-44 45a142 142 0 0 1-40 81l-67 67a140 140 0 0 1-71 38l-36 36a72 72 0 0 1-75 17l-39 97a22 22 0 0 1-1 3 81 81 0 0 1-141-81m53 69a35 35 0 0 0 47-10l44-107a72 72 0 0 1 10-90l85-85a23 23 0 1 1 32 32l-85 85c-10 11-10 27 0 37l0 1a26 26 0 0 0 37 0l41-41c1-1 2-1 2-2 2-1 3-2 4-2a24 24 0 0 1 5-2 20 20 0 0 1 2-1c20-3 39-12 54-27l66-67c17-16 26-37 28-60a23 23 0 0 1 7-15l34-34-98-97a391 391 0 0 0-178 130c-50 70-147 302-148 305a20 20 0 0 1-1 3 35 35 0 0 0 12 47m501 466a257 257 0 1 1 0-513 257 257 0 0 1 0 513m127-174l-67-96-44-63-23-33a24 24 0 0 0-19-10h-1a24 24 0 0 0-18 8l-82 95a24 24 0 0 0 3 34 24 24 0 0 0 5 4 24 24 0 0 0 29-6l0-1 61-71 15 21 42 60 60 85a24 24 0 0 0 39-27" horiz-adv-x="1127" />

<glyph glyph-name="pay-card" unicode="&#xea7d;" d="M1175-67h-1033a62 62 0 0 0-59 65v101h1150v-101a62 62 0 0 0-58-65m-1033 834h1033a62 62 0 0 0 58-65v-548h-1150v548a62 62 0 0 0 59 65m1033 83h-1033a145 145 0 0 1-142-148v-704a145 145 0 0 1 142-148h1033a145 145 0 0 1 141 148v704a145 145 0 0 1-141 148m-698-260v-22h-66a28 28 0 1 1 0-55h66v-27h-66a28 28 0 1 1 0-56h66v-21l-247-1 0 22h65a28 28 0 1 1 0 56h-66l0 27h66a28 28 0 1 1 0 55h-66l0 21 248 1z m-248-236h249c30 0 54 24 54 54v182a54 54 0 0 1-54 55h-249a54 54 0 0 1-55-55v-182c0-30 25-54 55-54z" horiz-adv-x="1316.1" />

<glyph glyph-name="pay-carrefour" unicode="&#xea7e;" d="M405 483c0 121 28 222 99 222 43 0 79-25 79-46a18 18 0 0 0-5-13 80 80 0 0 1-28-56 58 58 0 0 1 54-58 59 59 0 0 1 58 66 153 153 0 0 1-31 87 5 5 0 0 0-1 3c0 2 1 4 3 4a5 5 0 0 0 3-2l182-177a37 37 0 0 0 0-59l-182-176a5 5 0 0 0-3-2c-2 0-3 1-3 3a5 5 0 0 0 1 3 153 153 0 0 1 31 88 59 59 0 0 1-58 65 58 58 0 0 1-54-57c1-22 11-43 28-57a18 18 0 0 0 5-13c0-20-36-45-79-45-71 0-99 100-99 220m-41 207a5 5 0 0 0 3 1 3 3 0 0 0 2-1 3 3 0 0 0 1-2 5 5 0 0 0-2-3 307 307 0 0 1-74-202 304 304 0 0 1 74-200 5 5 0 0 0 2-4 3 3 0 0 0-1-2 3 3 0 0 0-2-1 5 5 0 0 0-3 2l-182 176a37 37 0 0 0 0 59l182 177z m236-711a51 51 0 0 0-9 3l-5-22a69 69 0 0 1 10-3 58 58 0 0 1 14-2c7 0 15 1 22 3a51 51 0 0 1 17 9c6 5 10 10 14 16 5 7 9 15 12 23 10 23 20 48 28 75 9 27 17 54 24 83h-28c-5-21-10-42-16-62-6-21-12-41-20-62a616 616 0 0 0-25 64 712 712 0 0 0-18 60h-30c7-27 16-54 27-80 11-27 22-52 35-75a62 62 0 0 0-17-24 40 40 0 0 0-25-7 42 42 0 0 0-10 1m-61 52c-5 0-11 0-17 0-9-1-18 1-26 5a22 22 0 0 0-9 21 20 20 0 0 0 4 13 27 27 0 0 0 9 7 40 40 0 0 0 13 4c4 1 9 1 13 1 5 0 11 0 16-1a34 34 0 0 0 10-3v-45a78 78 0 0 0-13-2m8 133a79 79 0 0 1-28 4 147 147 0 0 1-26-2 84 84 0 0 1-18-5l3-22c5 1 10 3 15 4a132 132 0 0 0 24 2 42 42 0 0 0 17-4 28 28 0 0 0 16-20c1-4 2-9 2-13v-8l-5 1-6 1a90 90 0 0 1-17 2 113 113 0 0 1-25-3 65 65 0 0 1-21-8 41 41 0 0 1-19-36c0-8 1-16 4-23a39 39 0 0 1 13-15c5-4 12-7 19-9 7-2 16-2 24-2 6 0 12 0 18 0 6 1 12 1 17 2 6 1 10 1 15 2l9 1v96a89 89 0 0 1-3 24 46 46 0 0 1-9 19 45 45 0 0 1-19 12m-178 28c-13 0-22 0-29-1v-80h22c9 0 18 1 27 2 7 1 13 3 20 7a32 32 0 0 1 12 12 41 41 0 0 1 4 20 37 37 0 0 1-4 20 34 34 0 0 1-12 12 53 53 0 0 1-19 7 128 128 0 0 1-21 1m-3 25a114 114 0 0 0 66-16c16-11 25-30 24-49a66 66 0 0 0-7-30 52 52 0 0 0-18-20c-9-6-19-10-29-12a191 191 0 0 0-39-3h-23v-76h-28v201c9 2 18 4 27 4 10 1 19 1 27 1m571-172a132 132 0 0 0-132-132h-610a132 132 0 0 0-132 132v610a132 132 0 0 0 132 132h610a132 132 0 0 0 132-132v-610z m-132 805h-610a195 195 0 0 1-195-195v-610a195 195 0 0 1 195-195h610a195 195 0 0 1 195 195v610a195 195 0 0 1-195 195" horiz-adv-x="1000" />

<glyph glyph-name="pay-visa-carrefour" unicode="&#xea7f;" d="M1175-67h-1033a62 62 0 0 0-59 65v101h1150v-101a62 62 0 0 0-58-65m-1033 834h1033a62 62 0 0 0 58-65v-548h-1150v548a62 62 0 0 0 59 65m1033 83h-1033a145 145 0 0 1-142-148v-704a145 145 0 0 1 142-148h1033a145 145 0 0 1 141 148v704a145 145 0 0 1-141 148m-698-260v-22h-66a28 28 0 1 1 0-55h66v-27h-66a28 28 0 1 1 0-56h66v-21l-247-1 0 22h65a28 28 0 1 1 0 56h-66l0 27h66a28 28 0 1 1 0 55h-66l0 21 248 1z m-248-236h249a54 54 0 0 1 54 54v182a54 54 0 0 1-54 55h-249a54 54 0 0 1-54-55v-182c0-30 24-54 54-54z m677-35c30 0 54 17 55 32a12 12 0 0 1-4 8 55 55 0 0 0-20 39 40 40 0 0 0 38 39 40 40 0 0 0 39-45 105 105 0 0 0-21-59 4 4 0 0 1-1-2c0-2 1-3 2-3a3 3 0 0 1 3 1l124 121a25 25 0 0 1 0 41l-124 120a3 3 0 0 1-3 1c-1 0-1-1-2-2a4 4 0 0 1 1-2c13-17 21-38 21-60a40 40 0 0 0-39-44 40 40 0 0 0-38 39 55 55 0 0 0 20 38 12 12 0 0 1 4 9c-1 14-25 31-55 31-48 0-68-69-68-151 0-83 20-151 68-151l0 0z m-95 10a3 3 0 0 1 2-1c0 0 1 1 1 1s1 1 1 2a4 4 0 0 1-1 2 207 207 0 0 0-51 137 209 209 0 0 0 51 138 4 4 0 0 1 1 2 2 2 0 0 1-1 2 2 2 0 0 1-1 0 3 3 0 0 1-2-1l-125-120a25 25 0 0 1 0-41l125-121z" horiz-adv-x="1316.1" />

<glyph glyph-name="service-guarantee-carrefour" unicode="&#xea80;" d="M549 850c-66 0-92-93-92-203 0-111 26-203 92-203 39 0 72 23 72 42a16 16 0 0 1-5 12 73 73 0 0 0-26 52 53 53 0 0 0 51 53 54 54 0 0 0 53-60 140 140 0 0 0-29-81 5 5 0 0 1-1-2c0-2 1-3 3-3a5 5 0 0 1 3 1l167 162a34 34 0 0 1 0 55l-167 161a5 5 0 0 1-3 2c-2 0-3-1-3-3a5 5 0 0 1 1-3c18-23 28-51 29-80a54 54 0 0 0-53-60 53 53 0 0 0-51 53 73 73 0 0 0 26 51 16 16 0 0 1 5 12c0 19-33 42-72 42z m-129-14a4 4 0 0 0 3 2 3 3 0 0 0 3-3 5 5 0 0 0-2-3 282 282 0 0 1-68-185 278 278 0 0 1 68-184 5 5 0 0 0 2-3 3 3 0 0 0-3-3 4 4 0 0 0-3 1l-167 162a34 34 0 0 0 0 55l167 161z m550-720a28 28 0 0 1-5-2c-4-1-388-160-529-184a647 647 0 0 0-360 57v227h79a38 38 0 0 1 25 9 159 159 0 0 0 104 39h156a158 158 0 0 0 94-31c1 0 2-1 4-1a39 39 0 0 1 6-4 38 38 0 0 1 8-1 37 37 0 0 1 4-1h96a44 44 0 0 0 43-43v-1a43 43 0 0 0-43-43h-199a38 38 0 1 1 0-76h199a120 120 0 0 1 116 93l176 75a58 58 0 0 0 26-113m116 89a134 134 0 0 1-163 97 38 38 0 0 1-5-2l-159-67a119 119 0 0 1-107 67h-85a232 232 0 0 1-127 38h-156a235 235 0 0 1-142-48h-104a38 38 0 0 1-38-38v-287c0-13 6-25 17-32a634 634 0 0 1 337-83c31 0 61 2 92 5 147 24 510 173 546 188a134 134 0 0 1 94 162z" horiz-adv-x="1089.8" />

<glyph glyph-name="service-hand" unicode="&#xea81;" d="M1987 395a78 78 0 0 1-11-4c-8-3-795-329-1084-376a1325 1325 0 0 0-736 115v466h162a79 79 0 0 1 51 19 326 326 0 0 0 212 79h319a322 322 0 0 0 193-63 82 82 0 0 1 8-4 81 81 0 0 1 14-6 78 78 0 0 1 16-4 75 75 0 0 1 8-1h196a89 89 0 0 0 89-89v-1a89 89 0 0 0-89-88h-407a78 78 0 0 1 0-156h407a245 245 0 0 1 238 191l361 153a119 119 0 1 0 53-231m237 182a274 274 0 0 1-334 198 67 67 0 0 1-11-3l-325-138a245 245 0 0 1-219 138h-174a476 476 0 0 1-261 78h-319a481 481 0 0 1-291-98h-212a78 78 0 0 1-78-78v-589c0-26 13-50 34-65a1298 1298 0 0 1 691-169c63 0 125 3 188 10 302 49 1044 354 1118 384a275 275 0 0 1 193 332z" horiz-adv-x="2232" />

<glyph glyph-name="sun-cloud" unicode="&#xea82;" d="M97 386h-65a32 32 0 0 1 0-65h65a32 32 0 0 1 0 65m399 464a32 32 0 0 1-32-32v-65a32 32 0 0 1 65 0v65a32 32 0 0 1-33 32m-171-134l-33 56a32 32 0 1 1-56-33l33-56a32 32 0 0 1 56 33m-158-135l-56 33a32 32 0 0 1-33-56l56-33a32 32 0 0 1 33 56m12-411a32 32 0 0 1-45 12l-56-32a32 32 0 1 1 33-56l56 32a32 32 0 0 1 12 44m566 614a32 32 0 0 1-45-12l-32-56a32 32 0 0 1 56-33l32 56a32 32 0 0 1-11 45m-402-610c-51 44-84 108-84 180a238 238 0 0 0 237 237c79 0 148-39 192-98a285 285 0 0 0 68 14 302 302 0 0 1-260 149 303 303 0 0 1-302-302c0-98 47-185 119-240 7 21 17 42 30 60m153 352a173 173 0 0 1-172-172 32 32 0 1 1 64 0c0 59 49 108 108 108a32 32 0 0 1 0 64m521-263l-1 1-1 2a238 238 0 0 1-73 130 239 239 0 0 1-161 63c-47 0-91-13-130-38a240 240 0 0 1-74-76l-1-2-2 1a135 135 0 0 1-107-33 134 134 0 0 1-44-122l0-2-1-1a185 185 0 0 1-71-144c0-48 17-94 49-130 34-38 78-60 126-62h113c0 0 1 0 1 0h334a204 204 0 0 1 137 68 212 212 0 0 1 55 143c0 92-63 177-149 202m-46-355h-347c0 0 0 0-1 0h-96c-64 4-118 65-118 134 0 44 24 85 62 108a29 29 0 0 1 13 35 76 76 0 0 0 97 97 29 29 0 0 1 36 15 182 182 0 0 0 164 104 180 180 0 0 0 180-163c1-13 11-24 24-26 70-12 123-77 123-151 0-78-61-147-137-153" horiz-adv-x="1166.3" />

<glyph glyph-name="sun" unicode="&#xea83;" d="M98 383h-65a33 33 0 0 1 0-66h65a33 33 0 0 1 0 66m869 0h-65a33 33 0 0 1 0-66h65a33 33 0 0 1 0 66m-467-403a33 33 0 0 1-33-32v-65a33 33 0 0 1 66 0v65a33 33 0 0 1-33 32m0 870a33 33 0 0 1-33-33v-65a33 33 0 0 1 66 0v65a33 33 0 0 1-33 33m262-889l-33 57a33 33 0 1 1-56-33l33-56a33 33 0 1 1 56 32m-435 754l-32 56a33 33 0 0 1-57-32l33-57a33 33 0 1 1 56 33m594-570l-56 32a33 33 0 0 1-33-56l57-33a33 33 0 0 1 32 57m-753 434l-56 33a33 33 0 1 1-33-56l56-33a33 33 0 0 1 33 56m765 21a33 33 0 0 1-44 12l-57-33a33 33 0 0 1 33-56l56 33a33 33 0 0 1 12 44m-753-435a33 33 0 0 1-45 12l-56-32a33 33 0 0 1 33-57l56 33a33 33 0 0 1 12 44m570 618a33 33 0 0 1-44-12l-33-56a33 33 0 1 1 56-33l33 57a33 33 0 0 1-12 44m-435-753a33 33 0 0 1-44-12l-33-57a33 33 0 0 1 57-32l32 56a33 33 0 0 1-12 45m185 624c-168 0-304-136-304-304s136-304 304-304 304 136 304 304-136 304-304 304m0-543c-132 0-239 107-239 239s107 239 239 239 239-107 239-239-107-239-239-239m0 413a174 174 0 0 1-174-174 33 33 0 1 1 65 0 109 109 0 0 0 109 109 33 33 0 0 1 0 65" horiz-adv-x="1000" />

<glyph glyph-name="agenda" unicode="&#xea84;" d="M337 149a34 34 0 0 0 24-58 34 34 0 0 0-37-8 34 34 0 0 0-11 56 34 34 0 0 0 24 10m0 47a81 81 0 1 1 0-162 81 81 0 0 1 0 162m236-68a34 34 0 1 1-63-26 34 34 0 0 1 63 26m-106 18a81 81 0 0 0 75 50 81 81 0 0 0 80-81 81 81 0 1 0-155 31m-130 207a34 34 0 1 0 0-68 34 34 0 0 0 0 68m0 47a81 81 0 1 1 0-162 81 81 0 0 1 0 162m239-81a34 34 0 1 1-68 0 34 34 0 0 1 68 0m-115 0a81 81 0 1 0 161 0 81 81 0 0 0-161 0m-124 238a34 34 0 0 0 24-58 34 34 0 0 0-58 24c0 19 16 34 34 34m0 47a81 81 0 0 1-57-138 81 81 0 1 1 57 138m236-68a34 34 0 1 1-63-26 34 34 0 0 1 63 26m-106 18a81 81 0 0 0 75 50 81 81 0 0 0 80-81 81 81 0 0 0-138-57 81 81 0 0 0-17 88m471 31h-109a39 39 0 0 1-39-39v-198a39 39 0 0 1 39-39h109v276z m-784 203a92 92 0 0 1-91-92v-692a92 92 0 0 1 91-92h692a92 92 0 0 1 92 92v258h-109a86 86 0 0 0-86 86v198a86 86 0 0 0 86 86h109v64a91 91 0 0 1-92 92h-692z m692-938h-692a154 154 0 0 0-154 154v692a154 154 0 0 0 154 154h692a154 154 0 0 0 154-154v-692a154 154 0 0 0-154-154" horiz-adv-x="1000" />

<glyph glyph-name="calendar-clock-slot" unicode="&#xea85;" d="M494 41h-358a77 77 0 0 0-77 78v418h790v-180c22-12 42-26 59-44v353c0 76-61 138-136 138h-63v16a30 30 0 0 1-30 30 30 30 0 0 1-30-30v-16h-390v16a30 30 0 0 1-30 30 30 30 0 0 1-29-30v-16h-64c-75 0-136-62-136-138v-547c0-76 61-138 136-138h390a254 254 0 0 0-32 60m-435 625a77 77 0 0 0 77 78h64v-57c0-16 13-30 29-30a30 30 0 0 1 30 30v57h390v-57c0-16 14-30 30-30a30 30 0 0 1 30 30v57h63a77 77 0 0 0 77-78v-89h-790v89z m676-246c-157 0-285-128-285-285s128-285 285-285c157 0 285 128 285 285s-128 285-285 285m0-42c134 0 243-109 243-243s-109-243-243-243c-134 0-243 109-243 243s109 243 243 243m-2-63a21 21 0 0 1-19-22v-158c0-8 4-15 11-18l95-53a21 21 0 1 1 20 37l-84 47v145a21 21 0 0 1-21 22h0a14 14 0 0 1-2 0" horiz-adv-x="1020" />

<glyph glyph-name="calendar" unicode="&#xea86;" d="M889 797h-73v19c0 19-16 34-34 34a34 34 0 0 1-34-34v-19h-450v19c0 19-15 34-34 34a34 34 0 0 1-34-34v-19h-73c-87 0-157-71-157-158v-630c0-88 70-159 157-159h732c86 0 156 71 157 159v630c-1 87-71 158-157 158m-732-69h73v-65c0-19 15-35 34-35a34 34 0 0 1 34 35v65h450v-65c0-19 15-35 34-35a34 34 0 0 1 34 35v65h73a89 89 0 0 0 88-89v-103h-909v103a89 89 0 0 0 89 89m732-809h-732a89 89 0 0 0-89 90v481h909v-481a89 89 0 0 0-88-90" horiz-adv-x="1045.5" />

<glyph glyph-name="clock-timing" unicode="&#xea87;" d="M500 850c-276 0-500-224-500-500 0-276 224-500 500-500 276 0 500 224 500 500 0 276-224 500-500 500m0-74c236 0 426-190 426-426s-190-426-426-426c-236 0-426 190-426 426s190 426 426 426m-4-111a37 37 0 0 1-33-37v-278c0-13 7-26 19-32l167-93a37 37 0 0 1 36 65l-148 82v256a37 37 0 0 1-36 37h-2a45 45 0 0 1-3 0" horiz-adv-x="1000" />

<glyph glyph-name="baby-bottle" unicode="&#xea88;" d="M1000 735c5 62-43 115-106 115h-5c-33 0-62-14-81-34l-24-24c-29 10-58 15-92 15-43 0-86-10-120-29-9 5-19 5-33 5-29 0-58-10-77-34l-10-10c-29-28-38-67-29-105l-384-385c-49-48-49-130 0-178l187-187c48-48 130-48 178 0l385 384c9 0 19-4 28-4 29 0 58 9 77 33l10 10c29 29 38 72 29 110 33 68 38 145 9 217l24 24c20 19 34 48 34 77m-644-803c-24-24-63-24-87 0l-187 187c-24 24-24 63 0 87l53 53 81-82c10-10 24-10 29 0 10 10 10 24 0 29l-81 82 76 72 82-82c10-10 24-10 29 0 10 10 10 24 0 29l-82 82 68 67 81-82c10-10 24-10 29 0 10 10 10 24 0 29l-77 86 106 106 274-274-394-389z m500 423l-10-10c-19-19-43-19-62 0l-289 289c-14 19-14 43 0 62l10 10c19 19 48 19 62 0l289-289c19-19 19-43 0-62z m62 346l-53-53c34-58 44-125 15-187l-265 264c24 10 53 19 82 19 39 0 72-9 106-29l58 58c9 10 24 15 38 15 10 0 24-5 34-15 9-19 9-53-15-72 5 5 0 0 0 0z" horiz-adv-x="1000" />

<glyph glyph-name="apple" unicode="&#xea89;" d="M603 266c-18 4-32-5-37-19-18-50-68-86-128-86-59 0-109 36-127 86-5 14-23 23-37 19s-27-19-23-37c28-96 137-151 238-123 64 18 114 64 132 123 9 14 0 32-18 37m260 123c-27 91-96 169-183 205-9 5-22 9-32 9 19 10 32 19 46 32 55 46 82 124 64 192 0 9-9 14-18 14-78 18-155-5-215-55-27-27-50-59-59-96-14 46-32 82-60 114-9 10-22 10-27 0s-9-22 0-32c41-50 59-114 46-178l-87 19c-55 9-110 0-160-23-77-37-132-101-160-183-13-36-18-77-18-119 0-228 247-406 247-406 27-18 59-32 96-32 31 0 59 9 86 23h9c28-14 60-18 87-23 32 0 69 9 96 32 27 18 247 178 247 406 9 32 4 69-5 101m-315 370c46 36 105 55 169 45 9-50-14-105-55-137-46-36-105-54-169-45-4 50 14 105 55 137m41-827c-18-14-36-18-59-18s-46 9-64 18c-9 0-18 5-28 5-9 0-18 0-27-5-23-9-41-14-64-18-23 0-41 4-59 18-60 41-219 192-219 356 0 37 4 69 13 101 14 64 60 114 119 141 36 19 82 23 123 19l87-14c18-5 37-5 55 0l73 14c41 4 82 0 119-14 68-32 123-91 146-164 9-28 13-55 13-87-4-197-219-347-228-352z" horiz-adv-x="876.7" />

<glyph glyph-name="bread" unicode="&#xea8a;" d="M312-51h929c142 50 213 128 213 256 0 205-163 383-362 468l-113-341c-7-14-14-21-29-21s-21 0-35 7-14 21-7 36l113 347c-49 21-106 28-163 36l-135-426c0-7-14-14-21-14-14 0-21 0-35 7-7 7-7 21-7 35l134 412h-7-7c-49 0-106-7-156-14l-142-433c0-14-14-28-21-28-14 0-21 0-35 7-8 14-8 28-8 35l128 390c-241-78-447-262-447-503 0-128 71-206 213-256m-312 256c0 368 411 645 780 645s780-277 780-645c0-178-99-298-290-355h-979c-192 57-291 177-291 355" horiz-adv-x="1553.2" />

<glyph glyph-name="care-plaster" unicode="&#xea8b;" d="M763 448c-19 18-19 41 0 60s41 18 59 0 18-42 0-60-46-18-59 0m-462-402c-18-18-18-41 0-59s42-18 60 0 18 41 0 59c-14 19-41 19-60 0z m-169-59c-9 18-9 41 0 59s23 19 28 0c9-18 9-41 0-59-9-14-23-14-28 0m5 206c-18 9-18 22 0 27 18 9 41 9 59 0s19-23 0-27c-18-10-41-10-59 0m626 420c-19 18-19 41 0 59s41 18 59 0 18-41 0-59-46-19-59 0m-147 36c10 9 10 23 0 28-9 9-22 9-27 0-9-10-9-23 0-28 9-9 23-9 27 0m-54-100c-19 13-41 13-60 0l-242-247c-18-14-18-41 0-59l133-133c9-9 18-13 27-13 9 0 23 4 28 13l242 242c18 19 18 41 0 60l-128 137z m105-165l-242-242-133 133 242 242 133-133z m251 384c-110 109-288 109-397 0l-439-443c-109-110-105-288 5-397 109-105 283-105 393 0l438 443c109 114 109 287 0 397m-46-347l-438-443c-82-82-219-82-306 0-82 82-87 219 0 306l438 443c82 82 219 82 306 0 82-87 82-224 0-306" horiz-adv-x="1000" />

<glyph glyph-name="cat" unicode="&#xea8c;" d="M1296 240c25 0 37 25 37 44 0 25-25 38-50 38l-75-13c-26 157-120 466-126 478-13 38-51 63-88 50-19-6-32-12-44-25l-132-169h-296l-138 176c-19 25-44 37-76 31-25-6-50-25-56-50-7-19-101-327-126-485l-76 13c-25 0-44-13-50-38 0-25 13-44 38-50l88-13c6-50 25-100 50-144l-126-38c-25-6-37-31-31-50 6-19 19-32 44-32h13l163 44c120-107 270-170 434-163 157-7 314 56 428 163l163-44h13c25 0 44 19 44 44 0 19-13 38-32 38l-125 38c31 44 50 94 56 144l76 13z m-629-88c-51-6-101 31-107 82v25h207v-19c0-57-50-94-100-88m409-44l-126 38c-25 6-44-7-51-26-6-18 7-44 26-50l81-25c-88-69-201-101-308-107v164c76 6 126 63 132 138v19c0 31-25 56-56 56h-214c-32-6-57-25-57-56v-19c6-69 63-132 132-138v-164c-113 0-220 38-308 107l82 25c25 6 38 32 31 50-6 26-31 38-50 32l-126-38c-25 32-44 69-50 113l176-25h6c25 0 44 13 44 38 0 25-19 44-37 44l-189 25c19 113 82 340 119 453l126-170c13-19 38-31 57-31h308c25 0 44 12 57 31l125 170c32-107 101-340 120-453l-189-25c-25 0-38-25-38-44 0-25 19-38 44-38h7l176 25c-13-50-25-88-50-119z" horiz-adv-x="1333.3" />

<glyph glyph-name="categories" unicode="&#xea8d;" d="M1078-51c-5-16-15-26-26-26h-312c-16 0-26 10-26 26v260c0 141 26 282 73 412l5 16h208l5-16c52-130 73-271 73-412v-260z m-276 828h208v-68h-208v68z m-318-833c-10-11-26-16-41-16h-151c-16 0-32 5-42 16-36 26-172 146-172 276 0 26 5 52 11 78 15 47 46 89 99 109 20 11 41 16 67 16h26l68-10h42l57 10c31 5 62 0 89-10 52-26 93-68 109-125 5-21 10-42 10-63-5-161-172-276-172-281m-5 661c37 37 89 47 141 42 0-42-16-83-47-109-36-37-89-47-141-42-5 42 16 88 47 109m599 42l-10 26c10 10 10 26 10 36v68c0 42-31 73-73 73h-208c-42 0-68-36-68-73v-68c0-15 5-31 11-36l-11-26c-31-83-47-167-62-255-26 31-47 52-84 73 11 5 21 15 32 26 62 47 88 130 67 203-5 15-15 26-31 26-78 15-161-5-224-57-15-16-31-42-47-68-5 10-10 15-15 26-16 16-37 16-52 0-16-16-16-37-6-47 21-26 32-62 32-89l-52 6c-42 10-94 0-136-21l11-37-11 37c-62-31-114-89-135-151-11-37-16-68-16-104 0-162 146-297 203-339 26-21 52-26 84-26h151c31 0 57 10 83 26 52 36 94 83 135 130v-62c6-52 42-99 94-99h302c52 0 94 41 94 99v260c5 151-16 302-68 443" horiz-adv-x="1145.8" />

<glyph glyph-name="catering" unicode="&#xea8e;" d="M1055-150h240c42 0 73 31 73 74v98c0 31-18 61-49 73-24 301-258 546-558 589 18 19 24 43 24 68 0 55-43 104-104 104s-98-49-98-110c0-25 6-49 24-68-300-37-539-282-558-583-31-12-49-42-49-73v-98c0-43 31-74 74-74h981z m-79 86h-890v74h1196v-74h-306z m0 129h-841c12 294 252 534 552 534 295 0 540-240 552-534h-263z m-289 638c-24 0-43 18-43 43 0 24 19 43 43 43s43-19 43-43c0-25-18-43-43-43" horiz-adv-x="1374.2" />

<glyph glyph-name="cheese" unicode="&#xea8f;" d="M767 556c0 67-55 116-117 116-67 0-116-55-116-116 0-68 55-117 116-117 62 0 117 49 117 117m-117-62c-30 0-61 25-61 62 0 30 25 61 61 61 31 0 62-25 62-61-6-31-31-62-62-62m203-116c-80 0-147-68-147-148 0-79 67-147 147-147 80 0 147 68 147 147 0 80-67 148-147 148m0-240c-49 0-92 43-92 92s43 92 92 92 92-43 92-92-43-92-92-92m454 424c24 0 43 18 43 43v202c0 25-19 43-43 43h-982c-178 0-325-141-325-313v-368c0-172 147-313 325-313h982c24 0 43 18 43 43v399c0 24-19 43-43 43-62 0-111 49-111 110s49 111 111 111m-1215-399v368c0 129 104 227 239 227h92c-86-49-135-135-135-227v-356c0-92 49-184 129-233h-92c-129-6-233 98-233 221m1172 98v-325h-663c-135 0-251 104-251 233v362c0 135 116 239 251 233h663v-123c-111-24-178-128-154-233 19-73 80-129 154-147" horiz-adv-x="1355.8" />

<glyph glyph-name="cleaning" unicode="&#xea90;" d="M719 527c-18 19-18 42 0 60s41 14 60 0c18-18 18-41 0-60-19-13-42-13-60 0m-88 185c-9-19-9-42 0-60s23-19 28 0c9 18 9 41 0 60s-18 18-28 0z m88-60c-18 18-18 41 0 60s41 18 60 0 18-42 0-60c-19-14-42-14-60 0m-272-231l-5 5-23 97c28-37 70-60 111-65h5c18 0 32 14 32 33 0 18-14 32-32 32-42 9-79 37-93 78h60c37 0 65 28 65 65v78c0 37-28 65-65 65h-318c-78 0-142-65-142-139 0-50 27-96 69-124l-88-194v-4c-18-23-23-51-23-83v-272c5-83 78-148 161-148h258c88-4 157 60 162 148v240c0 36-19 73-46 96l-88 92z m-263 323h323v-83h-115c-9 0-14-4-19-9l-27-55h-185c-41 9-64 50-55 92 9 32 42 55 78 55z m337-747c-5-50-46-87-97-83h-263c-50-4-92 33-96 83v272c0 19 4 42 13 60l106 222h162l41-148c5-14 9-23 19-32l92-88c14-14 23-32 23-50v-236z m258 784c18 18 18 41 0 60s-42 18-60 0-18-42 0-60 41-19 60 0" horiz-adv-x="792.6" />

<glyph glyph-name="cold-cuts" unicode="&#xea91;" d="M455 558c-130 6-254-72-306-195 13-208 137-377 273-377h409c-78 91-123 208-136 325-33 188-7 364 58 448h-324c-130 0-234-104-267-266 78 84 189 130 299 123 20 0 26-19 26-32s-13-26-32-26z m396 195c26 6 52-7 71-26l20-20c-98-104-72-357 6-545 20-46 39-85 65-124-13-19-26-32-45-45-20-7-39 0-52 6-52 33-124 143-150 319-45 227 13 415 85 435z m409-812c6 0 13 6 19 6 39 33 59 124 39 234-13 78-32 156-58 227-20 52-46 98-78 143 0 7-7 7-7 13 0 0 0 7-6 7 0 0 0 6-7 6l-13 13-19 20v6l-7 7c-6 6-13 13-19 13l-7 6c-6 7-6 7-13 7l-6 6h-7s-6 0-6 7c-13 6-26 6-39 0 0 0-6 0-6-7-59-52-72-253 19-461 19-45 45-97 71-136l13-13c7-7 7-13 13-13 0-7 7-7 7-13l19-20 7-6c6-7 13-7 13-13 0 0 6 0 6-7 7-6 13-6 20-13 6 0 13-6 13-6h13c13-13 19-13 26-13z m58 565c7-20 20-39 26-59 85-201 111-467-6-565-26-19-52-32-85-32h-19-7-6-7-6-7-6c-7 0-7 0-13 6-7 13-13 20-20 20 0 0-6 0-6 6l-7 7-19 19-7 7-13 13-13 13-6 6c-7 0-7 7-13 13-20-26-39-39-65-52-13-6-26-6-45-6h-539c-182-7-338 182-364 429h-19c-26 0-46 19-46 39 0 26 20 45 46 45h19c6 253 162 435 364 435h441c59-6 117-45 143-97h97c7 0 13-7 20-7 6-6 13-6 19-13 7 0 7-6 13-6 7-7 20-13 26-20l7-6s6 0 6-7c7-6 20-19 26-32l7-7c13-13 19-26 32-39 7-13 20-26 26-45 7-13 20-33 26-46-6-13-6-19 0-19-6 0-6 0 0 0z m-279-26c-13-13-19-33-19-46 6-19 19-32 38-38s39 6 46 19c6 13 6 32 0 52-7 6-20 13-33 19-13 0-25 0-32-6z m162-175c20 13 26 45 7 65-13 19-46 26-65 6-20-13-26-45-7-65 13-19 46-19 65-6z m-19-130c-20-13-26-46-7-65 13-20 46-26 65-7 20 13 26 46 7 65-20 20-46 20-65 7z" horiz-adv-x="1415.6" />

<glyph glyph-name="cooking-hat" unicode="&#xea92;" d="M633 190c9-10 28-5 32 9 28 56 51 112 61 172 4 14-5 33-19 37-9 5-23-4-28-23-14-56-32-107-56-158-9-14-4-33 10-37m-154-10c14 0 28 14 28 28v168c0 14-14 28-28 28s-28-14-28-28v-168c0-14 14-28 28-28m-153 0c-14-9-28-4-33 10-28 51-51 111-65 172-5 18 5 32 19 37 14 5 27-5 32-23 14-56 33-107 61-154 4-14 0-32-14-42m-196 93v-353c0-37 28-65 65-65h614c38 0 65 32 65 65v353c126 75 168 238 93 363-46 79-134 130-227 130h-33c-51 51-126 84-205 84-79 0-153-33-204-88h-33c-149 0-265-117-265-265 0-93 51-177 130-224m84-339v102h577v-102h-577z m-79 693c32 32 79 51 126 51 13 0 27 0 41-5h10c14 0 23 5 32 14 65 84 186 103 270 37 14-9 28-23 37-37 10-9 19-14 33-14h14c14 5 23 5 37 5 98 0 181-79 181-181 0-70-42-135-102-163-14-5-23-23-23-37v-205h-577v205c0 14-9 32-23 37-65 28-107 93-107 163 0 51 18 93 51 130" horiz-adv-x="1004.7" />

<glyph glyph-name="drinks" unicode="&#xea93;" d="M754 808l-177 42c-42 9-84-14-93-56l-47-181h-437l107-763h507l107 763h-209l42 163c0 4 9 9 13 9l177-37c19-5 37 9 42 23s-14 33-32 37m-335-265l-33-130c-14 4-28 9-46 18-93 47-177 38-242-27l-19 139h340z m-256-628l-61 428c56 74 126 93 219 47 23-10 46-24 70-33 4-5 9-5 14-9h9c65-24 130-37 195-42l-55-391h-391z m479 628l-28-191c-51 5-107 14-167 33l41 158h154z" horiz-adv-x="781.4" />

<glyph glyph-name="fish" unicode="&#xea94;" d="M273 454c0-36 29-64 65-64s65 28 65 64-29 65-65 65c-43-7-65-36-65-65m1259 295c-36 15-72 0-93-21l-187-209c-7-7-15-21-22-29-115 216-352 360-604 360-223 0-432-108-561-295-87-122-87-288 0-410 129-180 338-288 561-295 252 0 489 144 611 360 8-7 15-22 22-29l187-209c14-21 36-29 65-29 7 0 21 0 29 8 36 14 64 57 64 93v605c-7 43-28 79-72 100m-884-791c57 86 93 180 93 288 0 79-22 158-57 230-8 14-29 14-44 7s-21-29-14-43c29-58 50-130 50-194 0-108-36-209-115-281-165 14-316 101-417 238-58 93-58 208 0 295 108 158 288 251 482 251 252-7 475-165 561-395-86-231-295-382-539-396m848 115l-158 180c-43 57-43 137 0 194l158 180v-554z" horiz-adv-x="1597.1" />

<glyph glyph-name="frozen" unicode="&#xea95;" d="M864 307l-144-81-213 122 213 122 144-81c18-10 41-5 50 13 9 18 5 41-13 50l-109 59 95 54c14 5 14 23 9 32-5 13-23 13-32 9l-95-55v127c0 23-18 36-36 36s-36-13-36-31l-5-168-212-122v240l144 86c19 9 23 32 14 50-9 18-32 22-50 13l-108-63v108c0 14-9 23-23 23s-23-9-23-23v-108l-104 63c-18 9-40 5-49-13-14-14-5-37 9-50l144-86v-244l-212 122v167c0 23-18 36-36 36-23 0-37-13-37-36v-127l-90 59c-14 5-27 0-32-9-9-13-4-27 9-36l95-54-113-59c-18-9-23-32-13-50 9-18 31-23 49-13l145 81 213-122-213-122-145 81c-18 9-40 5-49-14-10-18-5-40 13-49l109-59-95-54c-14-5-14-23-9-32 4-14 22-14 31-9l95 54v-127c0-18 14-36 37-36 18 0 36 14 36 36l4 168 208 122v-244l-144-86c-18-9-23-32-14-50 9-18 32-23 50-14l108 64v-109c0-14 9-23 23-23s23 9 23 23v109l108-64c18-9 41-4 50 14 9 18 5 41-14 50l-144 86v244l212-122 5-168c0-18 18-36 36-36s36 18 36 36v127l95-54c5 0 9-5 14-5 13 0 23 9 23 23 0 9-5 18-14 23l-95 54 109 59c18 9 22 31 13 49-9 19-32 28-50 14 0 5 0 0 0 0z" horiz-adv-x="918.6" />

<glyph glyph-name="hot-flame" unicode="&#xea96;" d="M594 1c-9-9-14-14-23-19 18 32 32 69 32 110 0 82-101 224-178 333l-19 23c-4 5-9 9-13 18-5 5-9 10-19 10s-13-5-18-10c-4-9-9-13-13-18l-10-18c-96-137-182-265-182-343 0-36 9-73 32-105-9 5-14 14-23 19-55 55-87 128-87 205 0 119 183 375 292 530 5 9 5 14 9 23 5-5 10-9 14-19l9-13c114-160 283-402 283-516 5-82-27-155-86-210m-92-32c-73-64-182-64-255 0-32 32-51 73-51 118 0 69 110 224 174 316l4 9 14-19c69-95 169-237 169-306 0-41-18-86-55-118z m-45 794l-14 19c-5 4-9 13-18 22-5 14-14 23-23 32-5 9-14 14-28 14-9 0-18-5-27-14-4-9-14-18-23-32-4-9-9-18-18-22-128-188-306-434-306-576 0-96 41-187 110-256 73-68 169-105 264-105 101 0 197 37 265 105 69 69 110 160 110 256 4 137-169 379-292 557" horiz-adv-x="753.4" />

<glyph glyph-name="hygiene" unicode="&#xea97;" d="M86 687h493l10 91h-512l9-91z m436-516c-10-34-43-58-77-53h-220c-34-5-67 19-77 53-4 28-33 287-52 469h478c-24-182-52-441-52-469z m-72-249c5 0 9 5 9 9v120h-253v-120c0-4 5-9 9-9h235z m177 928c9 0 19-5 29-14 4-10 9-19 9-29 0 0-67-608-72-646-4-38-28-67-57-91v-143c0-44-38-82-81-82h-240c-43 0-81 38-81 82v143c-29 19-53 53-57 91-5 43-77 651-77 651 0 9 0 19 10 28 9 5 19 10 28 10h589z" horiz-adv-x="665.1" />

<glyph glyph-name="jar" unicode="&#xea98;" d="M775 451l-78 183c9 14 14 28 14 46v97c0 41-32 73-73 73h-491c-41 0-74-32-74-73v-101c0-14 5-32 14-46l-78-184c-4-9-9-23-9-36v-317c0-133 106-238 234-238h312c128 0 234 105 234 238v317c4 13 0 27-5 41z m-128 326v-101c0-5 0-5-5-9h-55v119h51c4 0 9-5 9-9z m-408-110h73v119h-73v-119z m114 0h74v119h-74v-119z m120 0h73v119h-73v-119z m-335 110c0 4 4 9 9 9h50v-119h-55c-4 4-4 4-4 9v101z m13-152h477l83-202v-9h-647v9l87 202z m-87-518h656v261h-656v-261z m482-193h-312c-87 0-156 64-170 152h652c-10-88-83-152-170-152z" horiz-adv-x="784.4" />

<glyph glyph-name="meat" unicode="&#xea99;" d="M852 568c23 0 42 4 60 23s28 51 19 78c-10 28-37 47-65 47 0 32-28 65-60 69-33 5-70-14-79-46-14-32 0-70 28-88l-74-74 46-51 74 74c9-18 32-32 51-32z m-139-190c-9-42-32-79-60-107l-5-9c-9-9-14-23-14-37 10-88-27-176-97-236-69-60-157-83-245-65-98 23-181 97-213 195-19 55-19 111 0 166 41 125 166 209 296 195 19 0 32 4 42 18l4 5c28 32 65 51 107 60 28 9 55 0 79-19l87-87c19-24 28-51 19-79z m245 361c-14 14-27 23-41 28-33 69-111 102-181 69-69-32-102-111-69-180l-33-33-9-9c-32 18-69 23-106 14-56-14-107-42-144-79-162 9-306-88-356-245-24-70-24-144 0-209 41-120 138-208 259-236 23-4 51-9 74-9 97 0 185 42 255 111 64 70 97 167 92 259 42 37 65 88 79 144 9 37 4 74-14 106 5 5 9 5 9 10l33 32c60-28 134-5 171 51 37 56 28 130-19 176z" horiz-adv-x="1000" />

<glyph glyph-name="plate-empty" unicode="&#xea9a;" d="M212 350c0-158 130-288 288-288 158 0 288 130 288 288 0 158-130 288-288 288s-288-130-288-288m-45 0c0 185 148 333 333 333 185 0 333-148 333-333 0-185-148-333-333-333-185 0-333 148-333 333m-99 0c0-239 193-432 432-432s432 193 432 432-193 432-432 432-432-193-432-432m-68 0c0 275 225 500 500 500s500-225 500-500-225-500-500-500-500 225-500 500" horiz-adv-x="1000" />

<glyph glyph-name="plate-full" unicode="&#xea9b;" d="M167 350c0 185 148 333 333 333 185 0 333-148 333-333 0-185-148-333-333-333-185 0-333 148-333 333m-99 0c0-239 193-432 432-432s432 193 432 432-193 432-432 432-432-193-432-432m-68 0c0 275 225 500 500 500s500-225 500-500-225-500-500-500-500 225-500 500" horiz-adv-x="1000" />

<glyph glyph-name="simply-you-box" unicode="&#xea9c;" d="M900-86h-836v277h836v-277z m-786 532h63c14 0 23 9 23 22s-9 23-23 23h-72l-14 55c-5 22 9 50 32 63 68 32 150 32 218 0 32-13 50-45 41-82l-41-154h-91c-14 0-23-9-23-23s9-23 23-23h82l-14-68h-159l-45 187z m450 163c104-9 186-91 195-195-13-14-23-32-32-50-4 9-9 18-13 22-32 46-82 78-141 78-14 0-27-9-32-23-18-55-9-114 23-159 9-9 13-18 22-27h-204l64 254c4 23 4 46 0 68 36 28 77 32 118 32m313-286c-27-27-63-50-104-50 4 82 68 150 150 159 0-41-18-82-46-109z m-277 77c50-18 86-68 86-123-54 19-86 69-86 123z m336-141h-31c9 5 13 14 22 18 50 50 73 119 59 187-4 13-13 22-27 27-50 9-100-5-141-27-22 82-82 154-159 186-77 36-168 32-245-9-14 14-28 23-46 27-32 18-68 28-104 28 13 36 45 59 82 59 9 0 18 9 18 22s-9 23-23 23c-32 0-64-14-86-36v63c0 14-9 23-23 23s-23-9-23-23v-63c-23 22-54 36-86 36-14 0-23-9-23-23s9-22 23-22c36 0 68-23 82-59-37-5-78-14-109-32-50-23-82-78-69-137l69-268h-64c-18 0-32-13-32-32v-345c0-18 14-32 32-32h900c18 0 32 14 32 32v345c4 19-14 32-28 32" horiz-adv-x="986.4" />

<glyph glyph-name="snack-bread" unicode="&#xea9d;" d="M385 827l868-839c17-17 23-35 23-58 0-46-35-80-81-80h-1155c-23 0-40 17-40 40v920c0 23 17 40 40 40h288c23 0 40-6 57-23m-304-98v-799h821l-821 799z m902-793h207l-862 828h-202l857-828z" horiz-adv-x="1275.9" />

<glyph glyph-name="strawberry" unicode="&#xea9e;" d="M514-14l200 323c27 46 32 105 4 150s-72 77-127 82l-368 14h-9c-55 0-100-28-128-73s-27-100-4-146l173-336c22-50 72-82 127-82 54-4 104 23 132 68z m-287 805c50 0 96-18 128-55 31-31 54-77 54-122-50 0-95 18-127 54-36 32-55 78-55 123z m414 14c-45 4-95-14-132-46-36-27-54-73-59-123 46-4 96 14 132 46 36 32 54 77 59 123z m-45-200c77-5 145-46 181-114 37-68 32-150-9-214l-200-323c-41-63-109-104-182-104h-9c-77 4-150 45-181 118l-173 337c-37 68-32 150 9 213 41 64 114 105 191 100h50c-9 5-18 9-23 18-50 46-73 114-64 182 0 9 10 18 19 18 68 10 136-13 181-63 14-18 28-37 37-59 13 32 32 54 59 77 50 45 118 64 182 50 9 0 13-9 18-18 4-68-23-132-73-177-23-19-50-37-77-46l64 5z m-187-569c-13-13-9-31 0-45 14-14 32-9 46 0 13 14 9 32 0 45-14 14-37 14-46 0z m68 123c-9-9-9-23-4-36 4-14 18-18 32-18 13 0 22 9 27 22 4 14 0 28-9 37-14 9-37 9-46-5z m69 118c-14-13-10-31 0-45 13-14 31-9 45 0 14 14 9 32 0 45-14 19-36 14-45 0z m50 137c-14-14-10-32 0-46 13-13 31-9 45 0 14 14 9 32 0 46-5 4-14 9-23 9s-18-5-22-9z m-260-255c-9-9-9-23-4-36 4-14 18-18 32-18 13 0 22 9 27 22 5 14 0 28-9 37-14 9-32 9-46-5z m119 77c9 10 9 23 4 37-4 13-18 18-32 18-13 0-22-9-27-23-4-13 0-27 9-36 14-9 32-9 46 4z m68 123c9 9 9 23 4 37-4 13-18 18-31 18-14 0-23-9-28-23-4-14 0-27 9-36 9-9 32-9 46 4z" horiz-adv-x="800" />

<glyph glyph-name="wine" unicode="&#xea9f;" d="M571 832c-5 9-14 18-28 18h-420c-13 0-27-9-32-18 0-5-91-315-91-379 5-92 50-174 128-224 23-18 41-32 59-41 32-18 73-32 110-37v-233h-91c-19 0-32-13-32-32 0-18 13-31 32-31h260c18 0 32 13 32 31 0 19-14 32-32 32h-101v233c41 5 78 19 110 37 18 14 36 27 59 41 78 50 124 132 128 224 5 64-87 374-91 379m-425-46h375c18-55 54-183 73-269h-521c23 86 59 214 73 269m352-511c-23-14-37-28-55-37-32-18-69-27-110-27h-4c-37 0-73 9-110 27-18 9-36 23-55 37-59 36-100 100-105 173 0 9 0 18 5 28h534c0-10 5-19 5-28-5-68-41-137-105-173" horiz-adv-x="666.7" />

<glyph glyph-name="auto-wheel" unicode="&#xeaa0;" d="M693 375a24 24 0 0 1 20 31l-5 16a24 24 0 0 1-35 14l-54-31c6-12 9-25 11-38l63 8z m-57-199a24 24 0 0 1 10 18h0a24 24 0 0 1-8 19l-46 42c-9-9-20-17-32-23l26-57a24 24 0 0 1 36-9l14 10z m-136 241a68 68 0 1 1 0-136 68 68 0 0 1 0 136m-107-255a24 24 0 0 1 15 13l28 60a133 133 0 0 0-31 23l-49-45a24 24 0 0 1 2-37l14-10a24 24 0 0 1 21-4m-112 244a24 24 0 0 1 3-21h0a24 24 0 0 1 17-10l69-8c2 12 5 24 10 36l-59 33a24 24 0 0 1-34-14l-6-16z m192 159a24 24 0 0 1-5-19l14-67c6 1 12 2 18 2 7 0 13-1 19-2l14 66a24 24 0 0 1-24 29h-17a24 24 0 0 1-19-9m275-129l6-17h0a67 67 0 0 0-56-87l-69-8a131 131 0 0 0-12-34l50-46a67 67 0 0 0-6-103l-14-10a66 66 0 0 0-99 26l-29 62a108 108 0 0 0-43 1l-29-63a66 66 0 0 0-61-39c-14 0-27 5-39 13l-14 10a67 67 0 0 0-6 103l54 50a130 130 0 0 0-10 30l-75 8a66 66 0 0 0-55 87l5 17a67 67 0 0 0 96 37l62-35c10 12 23 21 37 28l-14 71a66 66 0 0 0 65 80h17a67 67 0 0 0 65-80l-14-71c13-7 25-15 35-25l57 32a67 67 0 0 0 96-37m-248-377a291 291 0 1 0 291 291 291 291 0 0 0-291-291m0 624a333 333 0 1 1 333-333 334 334 0 0 1-333 333m0-769c-241 0-436 195-436 436 0 241 195 436 436 436s436-195 436-436c0-241-195-436-436-436m0 936c-276 0-500-224-500-500 0-276 224-500 500-500s500 224 500 500c0 276-224 500-500 500" horiz-adv-x="1000" />

<glyph glyph-name="beach-umbrella" unicode="&#xeaa1;" d="M955 265a147 147 0 0 0-140 79l280-1a147 147 0 0 0-140-78z m-366 0a146 146 0 0 0-141 80l281-1a147 147 0 0 0-140-79z m-367 0a146 146 0 0 0-141 81l282-1a146 146 0 0 0-141-80z m265 501c-55-73-93-204-105-368a36 36 0 0 1-4-3l-297 1a502 502 0 0 0 406 370m-54-371c-1 0-1 1-1 1 16 215 81 355 141 378 4 0 9 1 14 1h4c6 0 12-1 17-1 60-24 123-164 137-378 0-1-1-1-1-2l-311 1z m662-2l-295 1a33 33 0 0 1-5 4c-10 163-48 294-102 367a503 503 0 0 0 402-372m82-27c-38 274-290 482-586 484h-4c-294 0-546-204-587-476a36 36 0 0 1 3-19c9-92 103-165 219-165a238 238 0 0 1 183 79 230 230 0 0 1 146-76v-306a38 38 0 0 1 75 0v306a230 230 0 0 1 146 76 238 238 0 0 1 183-79 210 210 0 0 1 218 155 36 36 0 0 1 4 21" horiz-adv-x="1176.9" />

<glyph glyph-name="computer-laptop" unicode="&#xeaa2;" d="M270 460a25 25 0 0 1 14 5l253 172a26 26 0 0 1-29 42l-253-172a26 26 0 0 1 15-47z m237-414h190a26 26 0 1 0 0-51h-190a26 26 0 1 0 0 51z m-223 262a26 26 0 0 0-29 42l536 364a26 26 0 1 0 28-42l-535-364z m836-373c-4-6-7-8-8-8h-1021c0 0-4 2-7 8a63 63 0 0 0-3 52l72 180h25a38 38 0 0 1 24 8 27 27 0 0 1 4-1h791a26 26 0 0 1 5 1c6-5 15-8 23-8h26l71-180c7-17 6-36-2-52z m-914 838a41 41 0 0 1-40-41v-453c0-17 10-32 26-38a38 38 0 0 0 19-16h782a38 38 0 0 0 19 16 40 40 0 0 1 26 38v453a41 41 0 0 1-40 41h-792z m906-554l82-204h0a138 138 0 0 0-12-125c-15-25-41-39-70-40h-1021a84 84 0 0 0-69 39 138 138 0 0 0-12 126l82 204a39 39 0 0 0 7 12 116 116 0 0 0-10 48v453c0 65 52 118 117 118h792a118 118 0 0 0 117-117v-454c0-17-3-33-10-48a38 38 0 0 0 7-12z" horiz-adv-x="1203.5" />

</font>
</defs>
</svg>
